P2
# CREATOR: GIMP PNM Filter Version 1.1
50 50
255
133
133
148
150
153
163
171
170
151
144
149
168
171
164
156
152
149
156
152
149
159
173
174
176
180
170
167
171
159
149
150
152
168
174
165
168
185
187
179
167
155
157
164
172
158
157
151
167
178
189
131
128
145
148
139
129
143
144
129
119
118
129
142
142
137
136
135
137
134
125
132
150
158
158
167
163
158
159
154
160
167
170
169
171
162
152
164
168
154
147
151
159
158
165
173
169
164
167
170
182
140
133
135
139
145
135
128
140
130
123
130
151
149
137
136
144
161
157
147
140
133
150
157
154
153
155
156
138
125
121
123
146
161
169
169
157
143
132
124
122
124
136
151
134
130
141
146
149
150
170
155
149
138
129
144
155
160
147
145
134
131
153
166
163
156
146
156
168
152
139
141
150
145
156
158
158
163
145
133
131
124
118
129
139
152
158
148
143
134
128
128
125
124
136
133
127
140
152
153
161
154
155
149
137
147
163
167
154
152
165
155
143
135
161
175
169
167
145
150
147
147
148
145
142
168
173
177
160
142
132
136
147
141
123
117
121
126
126
122
119
115
119
122
127
129
130
137
147
142
148
156
140
157
151
156
161
170
165
148
163
175
191
153
155
174
180
192
174
166
167
167
172
167
177
179
170
167
153
143
129
120
131
143
149
130
123
121
121
112
100
100
101
116
115
113
118
123
121
124
130
158
145
148
156
169
168
164
176
174
166
162
176
202
187
203
196
195
223
216
213
198
213
195
210
207
207
181
164
152
154
144
130
130
147
150
145
132
113
110
106
103
91
87
95
105
106
112
116
126
134
163
158
162
159
167
167
176
182
183
189
181
161
180
200
209
218
219
235
243
232
234
235
230
219
227
217
215
195
179
191
204
185
157
162
164
156
151
134
117
106
112
107
101
96
113
120
124
131
147
149
154
141
146
159
176
183
176
176
181
186
196
201
197
195
207
220
228
236
251
241
226
224
230
231
235
231
224
225
220
202
203
206
198
191
189
178
152
147
144
138
118
123
119
115
129
143
155
155
166
174
144
143
130
125
155
181
162
179
187
197
205
221
228
224
225
229
221
223
235
247
235
226
233
244
239
233
222
233
235
217
200
201
194
187
174
166
166
148
139
144
140
131
133
137
142
145
153
150
150
175
128
145
147
138
145
188
199
194
205
220
223
220
225
224
237
243
238
227
226
239
243
234
230
242
244
231
221
218
225
220
209
204
217
189
171
158
154
162
169
158
142
136
137
139
158
158
148
140
152
170
122
130
139
148
163
188
211
215
222
225
216
214
227
226
213
230
236
230
233
241
242
247
240
233
241
239
230
225
225
226
215
209
207
210
192
187
171
163
179
178
152
128
135
129
138
137
143
146
163
167
126
125
138
140
164
196
194
198
218
221
210
206
226
227
222
220
226
225
228
234
230
235
246
241
230
234
239
230
237
229
231
223
216
201
194
193
191
178
166
162
161
143
135
145
142
134
121
136
168
182
108
116
126
143
153
178
192
185
196
219
221
213
233
237
236
236
232
221
229
233
230
213
230
241
236
228
238
235
231
238
227
230
223
208
181
178
187
179
156
151
152
156
140
141
145
139
131
131
152
178
109
102
112
134
164
177
203
206
223
234
244
239
242
244
244
233
213
189
194
207
213
209
202
221
242
229
235
244
242
232
227
232
224
217
198
191
190
195
184
170
153
154
151
142
147
141
137
143
176
196
120
125
125
131
161
180
184
209
227
233
236
244
248
243
233
234
221
201
192
195
197
200
211
210
232
241
221
237
244
241
222
224
231
232
219
207
193
196
189
190
174
153
163
159
145
128
125
124
143
175
103
118
142
153
169
187
194
206
214
213
215
214
223
233
226
215
215
221
214
210
226
222
226
225
220
239
231
226
231
238
234
225
222
216
214
201
194
192
188
184
173
155
155
155
136
126
137
133
127
147
109
115
131
160
173
202
207
211
212
207
206
199
197
200
214
215
195
196
207
196
216
226
225
234
235
240
237
233
225
225
228
227
229
207
194
200
197
185
180
190
176
151
146
151
153
118
117
141
148
150
140
144
151
149
171
190
197
193
194
200
199
198
197
201
210
226
206
199
204
207
196
193
200
217
230
221
204
199
206
217
218
202
203
218
217
214
205
190
172
174
176
170
142
136
135
117
105
125
149
167
149
146
151
162
172
180
196
189
192
194
184
189
194
203
219
222
225
212
209
220
219
202
196
197
211
202
179
177
176
187
205
205
191
195
202
197
199
199
182
163
159
150
146
140
126
114
117
126
131
146
160
145
139
148
163
178
179
172
187
190
185
179
187
196
211
207
207
222
212
199
215
207
197
189
202
204
196
193
191
188
179
188
200
191
198
196
180
198
194
181
166
162
146
141
136
111
111
125
143
142
138
143
140
142
162
175
174
160
167
179
181
177
165
163
186
197
174
191
218
212
188
207
206
198
204
190
184
178
182
195
194
183
195
207
212
207
184
190
193
177
166
165
159
138
120
109
108
113
120
135
120
124
135
140
153
178
191
176
172
169
168
163
160
157
161
194
200
191
214
226
212
203
222
206
202
189
178
167
161
171
194
193
194
206
219
218
197
196
195
190
170
144
155
149
126
103
109
123
134
125
123
131
138
137
138
179
193
189
186
179
173
166
152
153
162
183
208
205
209
218
220
221
222
201
188
180
174
172
176
170
170
180
177
183
209
223
223
202
198
201
179
160
146
137
113
101
102
123
138
128
122
129
147
162
156
167
174
162
164
180
171
169
169
163
157
188
205
212
210
218
210
208
218
216
198
186
179
162
167
183
180
183
176
182
196
226
230
233
207
187
172
168
156
137
112
95
94
112
123
137
143
131
132
146
158
176
170
167
155
160
147
146
166
180
165
159
172
184
202
208
212
199
194
203
204
180
174
176
159
167
171
177
184
207
221
228
214
222
224
209
175
162
161
148
113
94
95
118
113
115
121
130
129
142
143
161
175
175
167
169
156
128
132
149
156
145
149
156
174
202
207
211
201
197
196
171
153
158
175
166
157
178
191
202
217
229
219
208
214
210
193
166
165
156
136
113
111
121
126
118
96
98
119
126
129
161
178
183
172
151
147
139
122
115
123
135
143
161
176
185
199
203
201
188
181
191
185
169
174
178
179
186
202
204
212
224
221
223
216
193
189
170
160
147
120
109
113
119
118
127
107
91
105
127
126
140
174
180
199
185
154
147
156
156
150
154
159
168
181
188
201
205
209
208
191
179
197
198
188
195
204
210
207
214
225
228
224
211
200
199
194
185
161
150
125
117
114
121
118
129
127
116
128
152
148
146
157
169
171
178
162
133
145
165
167
162
172
176
182
191
191
199
206
209
204
179
177
189
194
200
208
219
220
216
211
220
219
198
188
197
191
199
183
151
132
126
121
117
122
135
111
98
111
143
148
163
173
184
174
160
152
151
146
153
155
157
174
187
190
204
205
190
183
199
203
197
173
188
203
211
203
198
202
207
206
207
215
210
187
187
176
167
177
154
115
111
122
123
119
129
94
95
92
105
123
137
156
161
174
179
160
151
147
159
166
154
151
170
178
201
216
205
188
192
212
210
199
195
200
207
212
207
197
199
209
215
217
209
183
162
168
155
157
160
127
116
136
150
135
127
106
99
100
93
97
121
153
161
155
178
172
150
151
157
173
166
167
176
189
189
207
214
203
195
205
204
196
193
190
189
196
198
196
202
198
209
202
182
169
156
164
168
162
163
152
145
150
161
156
162
105
96
105
116
110
116
142
166
158
148
177
179
163
157
161
172
170
191
201
194
187
210
215
205
190
186
179
183
178
178
185
192
194
215
207
189
183
177
160
153
166
170
156
145
132
140
152
149
151
168
94
78
80
105
123
132
132
142
163
148
167
191
181
165
168
186
198
207
213
212
209
209
210
205
198
183
188
189
190
186
193
206
184
186
203
184
174
173
152
146
160
153
142
126
120
129
146
151
146
153
115
94
74
85
114
131
145
148
154
158
149
169
190
183
184
196
205
203
208
222
223
229
222
210
211
205
194
190
191
201
195
203
207
198
193
195
179
170
161
157
158
155
153
137
125
122
131
149
144
139
108
92
85
82
92
104
124
123
133
166
154
150
167
176
193
205
210
200
207
220
221
226
234
230
216
205
210
197
181
195
200
183
196
204
205
197
182
157
163
156
155
164
166
161
146
126
112
130
147
141
99
97
79
79
91
106
113
115
119
132
173
176
172
183
201
202
216
212
213
227
234
227
223
225
231
211
217
222
213
201
208
195
185
193
184
173
174
165
163
172
171
162
146
154
148
138
127
139
144
146
102
90
93
81
78
97
124
118
122
144
148
179
184
189
202
216
225
220
213
210
220
232
232
219
218
219
209
197
204
203
192
200
181
190
185
171
156
147
149
148
166
156
136
116
114
129
142
143
150
161
102
81
61
82
77
91
103
124
129
153
155
163
178
170
177
197
217
220
218
215
208
224
231
219
209
210
214
199
191
187
183
183
178
174
193
195
170
148
141
139
137
147
140
143
124
135
148
144
141
158
113
92
68
66
82
80
92
107
137
142
157
153
169
176
176
180
179
192
204
209
207
216
224
223
219
211
211
213
205
185
182
181
170
164
154
169
167
137
129
133
136
124
129
151
137
130
142
136
137
132
138
95
86
69
75
83
79
84
92
131
141
127
138
155
163
174
182
168
190
215
217
214
220
215
218
225
216
208
215
214
196
187
183
179
160
148
155
139
117
125
122
112
114
139
131
106
108
114
117
131
117
93
78
63
61
69
89
63
66
82
137
133
141
135
141
169
188
179
178
210
223
198
209
221
216
202
194
193
206
213
209
192
175
173
170
147
152
142
129
121
120
113
105
112
113
111
94
97
112
116
142
96
89
73
51
53
62
68
61
64
81
121
130
143
141
153
185
190
193
193
197
184
177
198
212
213
187
174
209
216
206
181
165
163
154
148
143
134
130
126
121
103
103
109
107
100
105
104
118
123
140
116
108
101
73
53
52
62
60
61
70
77
93
113
123
129
144
168
169
179
186
179
176
161
178
185
184
164
165
191
181
166
153
151
150
141
131
124
118
104
98
89
80
100
108
101
103
104
120
142
125
105
96
98
82
69
58
64
57
75
73
91
85
97
117
135
144
139
139
134
139
150
159
139
134
162
172
172
153
152
159
152
136
130
138
137
124
108
108
100
88
78
70
80
84
92
96
93
110
144
137
103
84
87
77
63
58
56
65
64
74
78
96
95
98
133
150
150
141
138
128
131
129
123
113
122
134
145
140
135
141
150
143
127
106
105
98
90
85
95
99
89
78
82
83
86
90
98
120
149
151
124
101
105
107
87
76
72
56
55
71
66
69
87
85
93
124
120
136
146
155
153
155
157
145
135
133
129
128
128
136
128
126
129
115
101
102
101
93
89
87
86
80
81
82
84
90
94
113
132
135
142
126
117
107
117
117
105
96
81
67
71
74
81
82
74
100
100
99
119
124
124
123
140
158
161
148
142
148
157
153
138
127
133
138
123
121
127
128
121
104
94
95
87
90
84
88
101
117
131
147
141
140
137
123
108
109
122
116
122
119
90
86
90
101
109
108
120
128
121
132
135
116
101
111
134
136
122
136
146
152
141
137
144
143
134
129
126
123
136
124
113
111
116
108
117
100
100
126
151
