P2
# CREATOR: GIMP PNM Filter Version 1.1
100 100
255
0
0
0
0
0
0
0
0
0
0
0
0
0
0
0
0
0
0
0
0
0
0
0
0
0
0
0
0
0
0
0
0
0
0
0
0
0
0
0
0
0
0
0
0
0
0
0
0
0
0
0
0
0
0
0
0
0
0
0
0
0
0
0
0
0
0
0
0
0
0
0
0
0
0
0
0
0
0
0
0
0
0
0
0
0
0
0
0
0
0
0
0
0
0
0
0
0
0
0
0
0
0
0
0
0
0
0
0
0
0
0
0
0
0
0
0
0
0
0
0
0
0
0
0
0
0
0
0
0
0
0
0
0
0
0
0
0
0
0
0
0
0
0
0
0
0
0
0
0
0
0
0
0
0
0
0
0
0
0
0
0
0
0
0
0
0
0
0
0
0
0
0
0
0
0
0
0
0
0
0
0
0
0
0
0
0
0
0
0
0
0
0
0
0
0
0
0
0
0
0
0
0
0
0
0
0
0
0
0
0
0
0
0
0
0
0
0
0
0
0
0
0
0
0
0
0
0
0
0
0
0
0
0
0
0
0
0
0
0
0
0
0
0
0
0
0
0
0
0
0
0
0
0
0
0
0
0
0
0
0
0
0
0
0
0
0
0
0
0
0
0
0
0
0
0
0
0
0
0
0
0
0
0
0
0
0
0
0
0
0
0
0
0
0
0
0
0
0
0
0
0
0
0
0
0
0
0
0
0
0
0
0
0
0
0
0
0
0
0
0
0
0
0
0
0
0
0
0
0
0
0
0
0
0
0
0
0
0
0
0
0
0
0
0
0
0
0
0
0
0
0
0
0
0
0
0
0
0
0
0
0
0
0
0
0
0
0
0
0
0
0
0
0
0
0
0
0
0
0
0
0
0
0
0
0
0
0
0
0
0
0
0
0
0
0
0
0
0
0
0
0
0
0
0
0
0
0
0
0
0
0
0
0
0
0
0
0
0
0
0
0
0
0
0
0
0
0
0
0
0
0
0
0
0
0
0
0
0
0
0
0
0
0
0
0
0
0
0
0
0
0
0
0
0
0
0
0
0
0
0
0
0
0
0
0
0
0
0
0
0
0
0
0
0
0
0
0
0
0
0
0
0
0
0
0
0
0
0
0
0
0
0
0
0
0
0
0
0
0
0
0
0
0
0
0
0
0
0
0
0
0
0
0
0
0
0
0
0
0
0
0
0
0
0
0
0
0
0
0
0
0
0
0
0
0
0
0
0
0
0
0
0
0
0
0
0
0
0
0
0
0
0
0
0
0
0
0
0
0
0
0
0
0
0
0
0
0
0
0
0
0
0
0
0
0
0
0
0
0
0
0
0
0
0
0
0
0
0
0
0
0
0
0
0
0
0
0
0
0
0
0
0
0
0
0
0
0
0
0
0
0
0
0
0
0
0
0
0
0
0
0
0
0
0
0
0
0
0
0
0
0
0
0
0
0
0
0
0
0
0
0
0
0
0
0
0
0
0
0
0
0
0
0
0
0
0
0
0
0
0
0
0
0
0
0
0
0
0
0
0
0
0
0
0
0
0
0
0
0
0
0
0
0
0
0
0
0
0
0
0
0
0
0
0
0
0
0
0
0
0
0
0
0
0
0
0
0
0
0
0
0
0
0
0
0
0
0
0
0
0
0
0
0
0
0
0
0
0
0
0
0
0
0
0
0
0
0
0
0
0
0
0
0
0
0
0
0
0
0
0
0
0
0
0
0
0
0
0
0
0
0
0
0
0
0
0
0
0
0
0
0
0
0
0
0
0
0
0
0
0
0
0
0
0
0
0
0
0
0
0
0
0
0
0
0
0
0
0
0
0
0
0
0
0
0
0
0
0
0
0
0
0
0
0
0
0
0
0
0
0
0
0
0
0
0
0
0
0
0
0
0
0
0
0
0
0
0
0
0
0
0
0
0
0
0
0
0
0
0
0
0
0
0
0
0
0
0
0
0
0
0
0
0
0
0
0
0
0
0
0
0
0
0
0
0
0
0
0
0
0
0
0
0
0
0
0
0
0
0
0
0
0
0
0
0
0
0
0
0
0
0
0
0
0
0
0
0
0
0
0
0
0
0
0
0
0
0
0
0
0
0
0
0
0
0
0
0
0
0
0
0
0
0
0
0
0
0
0
0
0
0
0
0
0
0
0
0
0
0
0
0
0
0
0
0
0
0
0
0
0
0
0
0
0
0
0
0
0
0
0
0
0
0
0
0
0
0
0
0
0
0
0
0
0
0
0
0
0
0
0
0
0
0
0
0
0
0
0
0
0
0
0
0
0
0
0
0
0
0
0
0
0
0
0
0
0
0
0
0
0
0
0
0
0
0
0
0
0
0
0
0
0
0
0
0
0
0
0
0
0
0
0
0
0
0
0
0
0
0
0
0
0
0
0
0
0
0
0
0
0
0
0
0
0
0
0
0
0
0
0
0
0
0
0
0
0
0
0
0
0
0
0
0
0
0
0
0
0
0
0
0
0
0
0
0
0
0
0
0
0
0
0
0
0
0
0
0
0
0
0
0
0
0
0
0
0
0
0
0
0
0
0
0
0
0
0
0
0
0
0
0
0
0
0
0
0
0
0
0
0
0
0
0
0
0
0
0
0
0
0
0
0
0
0
0
0
0
0
0
0
0
0
0
0
0
0
0
0
0
0
0
0
0
0
0
0
0
0
0
0
0
0
0
0
0
0
0
0
0
0
0
0
0
0
0
0
0
0
0
0
0
0
0
0
0
0
0
0
0
0
0
0
0
0
0
0
0
0
0
0
0
0
0
0
0
0
0
0
0
0
0
0
0
0
0
0
0
0
0
0
0
0
0
0
0
0
0
0
0
0
0
0
0
0
0
0
0
0
0
0
0
0
0
0
0
0
0
0
0
0
0
0
0
0
0
0
0
0
0
0
0
0
0
0
0
0
0
0
0
0
0
0
0
0
0
0
0
0
0
0
0
0
0
0
0
0
0
0
0
0
0
0
0
0
0
0
0
0
0
0
0
0
0
0
0
0
0
0
0
0
0
0
0
0
5
5
5
5
5
5
5
5
5
5
5
5
5
5
5
5
5
0
0
0
0
0
0
0
0
0
0
0
0
0
0
0
0
0
0
0
0
0
0
0
0
0
0
0
0
0
0
0
0
0
0
0
0
0
0
0
0
0
0
0
0
0
0
0
0
0
0
0
0
0
0
0
0
0
0
0
0
0
0
0
0
0
0
0
0
0
0
0
0
0
0
0
0
0
0
0
5
5
5
5
5
5
5
5
5
5
5
5
5
5
5
5
5
5
5
5
5
5
5
5
5
5
5
0
0
0
0
0
0
0
0
0
0
0
0
0
0
0
0
0
0
0
0
0
0
0
0
0
0
0
0
0
0
0
0
0
0
0
0
0
0
0
0
0
0
0
0
0
0
0
0
0
0
0
0
0
0
0
0
0
0
0
0
0
0
0
0
0
0
0
0
0
0
0
5
5
5
5
5
5
5
5
5
5
5
5
5
5
5
5
5
5
5
5
5
5
5
5
5
5
5
5
5
5
5
5
5
0
0
0
0
0
0
0
0
0
0
0
0
0
0
0
0
0
0
0
0
0
0
0
0
0
0
0
0
0
0
0
0
0
0
0
0
0
0
0
0
0
0
0
0
0
0
0
0
0
0
0
0
0
0
0
0
0
0
0
0
0
0
0
0
0
5
5
5
5
5
5
5
5
5
5
5
5
5
5
5
5
5
5
5
5
5
5
5
5
5
5
5
5
5
5
5
5
5
5
5
5
5
5
5
0
0
0
0
0
0
0
0
0
0
0
0
0
0
0
0
0
0
0
0
0
0
0
0
0
0
0
0
0
0
0
0
0
0
0
0
0
0
0
0
0
0
0
0
0
0
0
0
0
0
0
0
0
0
0
0
0
0
0
5
5
5
5
5
5
5
5
5
5
5
5
5
5
5
5
5
5
5
5
5
5
5
5
5
5
5
5
5
5
5
5
5
5
5
5
5
5
5
5
5
5
5
5
0
0
0
0
0
0
0
0
0
0
0
0
0
0
0
0
0
0
0
0
0
0
0
0
0
0
0
0
0
0
0
0
0
0
0
0
0
0
0
0
0
0
0
0
0
0
0
0
0
0
0
0
0
0
5
5
5
5
5
5
5
5
5
5
5
5
5
5
5
5
5
5
5
5
5
5
5
5
5
5
5
5
5
5
5
5
5
5
5
5
5
5
5
5
5
5
5
5
5
5
5
5
0
0
0
0
0
0
0
0
0
0
0
0
0
0
0
0
0
0
0
0
0
0
0
0
0
0
0
0
0
0
0
0
0
0
0
0
0
0
0
0
0
0
0
0
0
0
0
0
0
0
0
5
5
5
5
5
5
5
5
5
5
5
5
5
5
5
5
5
5
5
5
5
10
10
10
10
10
10
10
10
10
10
10
10
5
5
5
5
5
5
5
5
5
5
5
5
5
5
5
5
5
5
0
0
0
0
0
0
0
0
0
0
0
0
0
0
0
0
0
0
0
0
0
0
0
0
0
0
0
0
0
0
0
0
0
0
0
0
0
0
0
0
0
0
0
0
0
0
0
0
5
5
5
5
5
5
5
5
5
5
5
5
5
5
5
5
5
5
5
10
10
10
10
10
10
10
10
10
10
10
10
10
10
10
10
10
5
5
5
5
5
5
5
5
5
5
5
5
5
5
5
5
5
5
0
0
0
0
0
0
0
0
0
0
0
0
0
0
0
0
0
0
0
0
0
0
0
0
0
0
0
0
0
0
0
0
0
0
0
0
0
0
0
0
0
0
0
0
0
5
5
5
5
5
5
5
5
5
5
5
5
5
5
5
5
5
5
10
10
10
10
10
10
10
10
10
15
15
20
20
15
15
10
10
10
10
10
10
5
5
5
5
5
5
5
5
5
5
5
5
5
5
5
5
5
0
0
0
0
0
0
0
0
0
0
0
0
0
0
0
0
0
0
0
0
0
0
0
0
0
0
0
0
0
0
0
0
0
0
0
0
0
0
0
0
0
0
0
5
5
5
5
5
5
5
5
5
5
5
5
5
5
5
5
5
10
10
10
10
10
10
10
10
10
15
15
15
20
30
107
20
15
15
10
10
10
10
10
10
10
5
5
5
5
5
5
5
5
5
5
5
5
5
5
5
5
5
0
0
0
0
0
0
0
0
0
0
0
0
0
0
0
0
0
0
0
0
0
0
0
0
0
0
0
0
0
0
0
0
0
0
0
0
0
0
0
0
5
5
5
5
5
5
5
5
5
5
5
5
5
5
5
5
5
10
10
10
10
10
10
10
10
10
15
15
15
20
25
117
163
30
20
15
15
10
10
10
10
10
10
10
5
5
5
5
5
5
5
5
5
5
5
5
5
5
5
5
5
0
0
0
0
0
0
0
0
0
0
0
0
0
0
0
0
0
0
0
0
0
0
0
0
0
0
0
0
0
0
0
0
0
0
0
0
0
0
5
5
5
5
5
5
5
5
5
5
5
5
5
5
5
5
10
10
10
10
10
10
10
10
10
10
15
15
15
15
25
35
81
255
193
56
15
15
15
10
10
10
10
10
10
10
10
5
5
5
5
5
5
5
5
5
5
5
5
5
5
5
5
0
0
0
0
0
0
0
0
0
0
0
0
0
0
0
0
0
0
0
0
0
0
0
0
0
0
0
0
0
0
0
0
0
0
0
0
0
5
5
5
5
5
5
5
5
5
5
5
5
5
5
5
10
10
10
10
10
10
10
10
10
10
15
15
15
15
20
117
112
81
102
107
35
20
15
15
15
10
10
10
10
10
10
10
10
5
5
5
5
5
5
5
5
5
5
5
5
5
5
5
5
0
0
0
0
0
0
0
0
0
0
0
0
0
0
0
0
0
0
0
0
0
0
0
0
0
0
0
0
0
0
0
0
0
0
0
5
5
5
5
5
5
5
5
5
5
5
5
5
5
10
10
10
10
10
10
10
10
10
10
10
15
15
15
20
20
25
51
107
96
91
178
35
25
20
15
15
15
10
10
10
10
10
10
10
10
5
5
5
5
5
5
5
5
5
5
5
5
5
5
5
5
0
0
0
0
0
0
0
0
0
0
0
0
0
0
0
0
0
0
0
0
0
0
0
0
0
0
0
0
0
0
0
0
0
5
5
5
5
5
5
5
5
5
5
5
5
5
5
10
10
10
10
10
10
10
10
10
10
10
15
15
15
20
20
25
25
122
107
255
178
61
35
25
20
20
15
15
10
10
10
10
10
10
10
10
10
5
5
5
5
5
5
5
5
5
5
5
5
5
5
5
5
0
0
0
0
0
0
0
0
0
0
0
0
0
0
0
0
0
0
0
0
0
0
0
0
0
0
0
0
0
0
0
0
5
5
5
5
5
5
5
5
5
5
5
5
10
10
10
10
10
10
10
10
10
10
10
15
15
15
20
20
20
20
25
35
86
255
255
239
137
51
35
25
20
20
15
15
10
10
10
10
10
10
10
10
10
10
5
5
5
5
5
5
5
5
5
5
5
5
5
5
5
0
0
0
0
0
0
0
0
0
0
0
0
0
0
0
0
0
0
0
0
0
0
0
0
0
0
0
0
0
0
5
5
5
5
5
5
5
5
5
5
5
5
10
10
10
10
10
10
10
10
15
15
15
15
15
20
25
25
25
25
30
30
35
188
209
255
255
204
117
66
51
25
25
20
15
15
10
10
10
10
10
10
10
10
10
10
5
5
5
5
5
5
5
5
5
5
5
5
5
5
5
0
0
0
0
0
0
0
0
0
0
0
0
0
0
0
0
0
0
0
0
0
0
0
0
0
0
0
0
0
5
5
5
5
5
5
5
5
5
5
10
10
10
10
10
15
15
15
15
15
15
15
15
15
20
25
147
35
30
102
40
40
40
255
234
255
255
209
127
112
112
35
35
30
20
15
15
10
10
10
10
10
10
10
10
10
10
5
5
5
5
5
5
5
5
5
5
5
5
5
5
5
0
0
0
0
0
0
0
0
0
0
0
0
0
0
0
0
0
0
0
0
0
0
0
0
0
0
0
5
5
5
5
5
5
5
5
5
10
10
10
10
10
15
15
15
15
15
15
15
15
15
20
20
20
35
102
76
158
188
117
255
51
71
147
244
255
193
173
107
112
51
117
188
30
20
15
15
15
10
10
10
10
10
10
10
10
10
5
5
5
5
5
5
5
5
5
5
5
5
5
5
0
0
0
0
0
0
0
0
0
0
0
0
0
0
0
0
0
0
0
0
0
0
0
0
0
0
0
5
5
5
5
5
5
5
5
10
10
10
10
15
15
15
15
15
15
15
15
15
15
20
20
20
25
35
255
255
137
112
107
137
61
66
255
183
224
173
214
96
86
107
255
81
30
20
20
15
15
15
10
10
10
10
10
10
10
10
10
5
5
5
5
5
5
5
5
5
5
5
5
5
5
0
0
0
0
0
0
0
0
0
0
0
0
0
0
0
0
0
0
0
0
0
0
0
0
0
5
5
5
5
5
5
5
10
10
10
10
15
15
30
30
20
20
20
20
15
20
20
20
20
20
25
30
40
142
239
255
102
102
204
71
71
112
168
173
173
112
96
96
178
255
102
30
25
20
15
15
15
15
15
15
10
10
10
10
10
10
10
5
5
5
5
5
5
5
5
5
5
5
5
5
5
0
0
0
0
0
0
0
0
0
0
0
0
0
0
0
0
0
0
0
0
0
0
0
0
5
5
5
5
5
5
10
10
10
10
15
15
20
35
112
30
25
25
25
20
20
20
20
20
25
30
35
61
71
188
107
96
91
86
76
76
127
255
255
255
112
102
102
255
198
122
35
25
20
20
15
15
15
15
15
15
15
15
10
10
10
10
10
5
5
5
5
5
5
5
5
5
5
5
5
5
0
0
0
0
0
0
0
0
0
0
0
0
0
0
0
0
0
0
0
0
0
0
0
0
5
5
5
5
5
10
10
10
10
15
15
15
20
229
255
66
209
40
112
30
25
25
25
25
30
137
127
117
86
91
102
96
91
86
81
81
91
102
102
107
102
96
96
107
112
96
45
30
20
20
20
15
15
15
15
15
15
15
15
15
10
10
10
10
10
5
5
5
5
5
5
5
5
5
5
5
5
0
0
0
0
0
0
0
0
0
0
0
0
0
0
0
0
0
0
0
0
0
0
5
5
5
5
5
10
10
10
10
10
15
15
20
25
255
255
204
112
86
204
40
30
25
25
30
35
137
193
107
96
96
102
96
91
86
86
86
91
91
91
91
91
91
96
96
107
163
255
35
25
20
20
20
15
15
15
15
15
15
15
15
15
15
10
10
10
10
5
5
5
5
5
5
5
5
5
5
5
0
0
0
0
0
0
0
0
0
0
0
0
0
0
0
0
0
0
0
0
0
0
5
5
5
5
10
10
10
10
10
15
15
20
25
30
51
234
193
112
107
122
255
35
30
30
30
40
71
117
107
102
102
102
102
96
86
86
86
86
91
86
86
86
86
91
96
107
137
107
35
25
25
20
20
20
20
15
15
15
15
15
20
20
20
15
10
10
10
10
5
5
5
5
5
5
5
5
5
5
5
0
0
0
0
0
0
0
0
0
0
0
0
0
0
0
0
0
0
0
0
0
5
5
5
5
10
10
10
10
15
15
15
25
35
122
66
137
183
117
102
107
122
61
35
35
40
255
117
107
112
255
107
107
255
107
91
91
91
91
86
86
86
86
86
91
96
107
122
255
35
30
25
25
20
20
20
20
20
20
20
20
20
20
25
30
15
15
10
10
10
10
5
5
5
5
5
5
5
5
5
0
0
0
0
0
0
0
0
0
0
0
0
0
0
0
0
0
0
0
0
0
5
5
5
10
10
10
10
15
15
20
20
35
255
107
86
91
102
96
91
102
127
56
40
40
51
107
117
117
122
255
255
127
255
117
96
91
91
91
86
86
86
81
81
86
244
122
127
66
35
30
25
25
25
25
25
30
30
25
25
25
25
66
56
45
20
15
15
10
10
10
10
5
5
5
5
5
5
5
5
5
0
0
0
0
0
0
0
0
0
0
0
0
0
0
0
0
0
0
0
0
5
5
5
10
10
10
15
20
20
20
25
40
96
102
91
91
91
91
86
96
158
56
45
51
224
117
127
255
198
255
183
158
255
188
112
96
91
91
86
86
81
81
81
81
173
142
255
51
35
30
30
30
25
25
30
45
117
35
30
30
35
102
96
132
20
20
15
15
10
10
10
10
5
5
5
5
5
5
5
5
0
0
0
0
0
0
0
0
0
0
0
0
0
0
0
0
0
0
0
5
5
5
10
10
10
15
20
25
25
25
30
204
102
107
102
96
91
86
81
76
71
56
56
61
112
132
219
188
188
183
178
168
183
183
219
107
102
91
86
81
81
76
76
76
107
127
66
45
40
35
35
35
35
35
35
71
255
132
153
40
51
209
183
51
25
20
15
15
15
10
10
10
10
5
5
5
5
5
5
5
0
0
0
0
0
0
0
0
0
0
0
0
0
0
0
0
0
0
0
5
5
5
10
10
15
20
255
117
132
35
40
112
255
142
198
107
96
86
81
76
71
61
61
255
137
255
204
209
255
204
255
178
173
168
147
229
168
102
86
81
76
76
76
71
71
66
56
45
40
40
35
35
255
71
142
66
209
122
117
76
66
239
255
112
30
25
15
15
15
10
10
10
10
10
5
5
5
5
5
5
0
0
0
0
0
0
0
0
0
0
0
0
0
0
0
0
0
0
0
5
5
5
10
15
15
20
56
209
107
51
86
142
188
178
173
214
188
86
81
76
71
71
168
142
147
214
255
255
255
255
255
188
173
163
147
255
244
255
86
81
76
76
71
71
66
61
56
51
45
45
45
51
66
204
117
91
214
107
102
86
76
255
255
122
117
30
20
15
15
15
10
10
10
10
10
5
5
5
5
5
5
0
0
0
0
0
0
0
0
0
0
0
0
0
0
0
0
0
0
5
5
5
10
15
20
35
107
96
86
66
147
219
255
244
173
209
102
86
81
76
76
76
107
147
255
229
255
255
255
255
249
255
173
163
198
255
209
96
86
76
76
76
71
66
66
61
56
51
51
51
86
168
142
117
112
102
102
102
91
86
86
163
173
112
81
255
25
20
15
15
15
10
10
10
10
10
5
5
5
5
5
0
0
0
0
0
0
0
0
0
0
0
0
0
0
0
0
0
0
5
5
5
10
20
107
188
183
132
86
86
163
255
255
255
255
163
102
86
81
81
86
102
163
153
234
255
255
255
255
255
255
249
178
168
168
198
204
91
81
76
76
76
71
66
66
61
56
56
61
76
255
127
117
117
117
107
107
102
91
91
91
107
229
107
122
239
30
20
20
15
15
15
10
10
10
10
10
5
5
5
5
0
0
0
0
0
0
0
0
0
0
0
0
0
0
0
0
0
0
5
5
5
15
56
102
255
255
255
86
112
178
255
255
255
178
178
255
86
86
86
96
255
168
168
229
255
255
255
255
255
255
239
255
168
158
173
255
86
81
81
76
76
71
71
66
66
66
66
76
209
127
127
255
132
255
127
117
132
96
91
91
96
96
96
107
102
35
25
20
20
20
15
15
10
10
10
10
5
5
5
5
0
0
0
0
0
0
0
0
0
0
0
0
0
0
0
0
0
0
5
5
5
15
122
163
214
142
76
86
112
173
255
255
229
153
168
255
81
81
86
91
117
153
168
244
255
255
255
255
255
255
239
255
158
153
255
102
86
81
81
76
76
76
71
71
66
71
255
153
127
137
153
183
198
188
193
147
255
102
96
96
91
91
91
102
127
35
25
25
20
20
20
15
15
10
10
10
10
5
5
5
5
0
0
0
0
0
0
0
0
0
0
0
0
0
0
0
0
0
5
5
5
10
20
30
255
40
219
91
102
193
188
204
255
147
86
76
76
81
86
91
193
163
183
229
255
255
255
255
255
255
229
178
158
147
127
102
86
81
81
76
76
76
76
76
76
86
255
147
142
158
224
198
198
193
183
178
198
117
102
96
91
86
86
183
137
40
30
30
30
30
25
51
20
15
10
10
10
5
5
5
5
0
0
0
0
0
0
0
0
0
0
0
0
0
0
0
0
0
5
5
5
10
15
15
25
30
117
102
96
117
122
127
122
91
61
71
76
81
86
96
188
178
173
255
255
255
255
255
255
255
234
255
158
173
224
137
86
81
81
76
76
81
81
255
96
193
137
142
234
219
214
255
255
219
193
183
173
132
224
102
86
81
81
86
61
45
40
45
56
147
45
255
25
20
15
10
10
10
5
5
5
0
0
0
0
0
0
0
0
0
0
0
0
0
0
0
0
0
5
5
5
10
10
15
15
20
45
198
81
107
102
193
142
51
56
66
76
81
86
102
255
168
168
255
255
255
255
255
255
219
244
153
147
255
255
173
86
81
81
76
81
81
86
173
255
255
147
153
244
219
255
255
255
255
255
255
168
168
255
102
86
81
76
66
56
51
142
193
102
107
81
198
45
20
15
15
10
10
5
5
5
0
0
0
0
0
0
0
0
0
0
0
0
0
0
0
0
0
5
5
5
10
10
10
15
20
25
255
45
147
56
45
40
45
61
86
81
81
86
102
224
132
173
183
193
219
255
255
214
219
234
142
137
193
96
255
81
81
76
76
81
81
86
137
224
173
158
255
234
255
255
255
255
255
255
255
173
178
188
96
86
81
76
71
61
91
122
127
122
117
96
102
117
30
25
15
15
10
5
5
5
0
0
0
0
0
0
0
0
0
0
0
0
0
0
0
0
0
5
5
5
5
10
10
10
15
20
51
25
30
30
30
30
40
137
183
86
86
91
96
102
117
198
178
183
193
198
198
224
158
142
147
255
86
76
76
76
76
76
76
81
81
86
102
127
147
158
178
229
255
255
255
255
255
255
229
183
163
193
91
86
81
76
76
86
147
255
204
188
193
102
91
219
40
255
30
20
10
5
5
5
0
0
0
0
0
0
0
0
0
0
0
0
0
0
0
0
0
5
5
5
5
10
10
10
10
15
15
20
20
20
25
25
35
127
102
91
91
91
96
96
102
255
147
193
188
198
183
153
137
127
153
255
71
66
71
71
76
76
76
81
81
86
102
255
153
158
255
239
255
255
255
255
255
255
244
168
153
117
91
86
81
81
255
168
153
229
255
255
173
112
86
76
142
214
163
122
15
5
5
5
0
0
0
0
0
0
0
0
0
0
0
0
0
0
0
0
0
0
5
5
5
5
10
10
10
10
15
15
20
20
20
25
35
102
107
96
96
96
91
91
96
132
117
127
255
132
255
127
127
209
76
66
66
66
66
71
71
76
76
81
81
86
255
173
158
168
255
239
255
255
255
255
255
255
229
168
168
255
96
86
86
86
255
178
178
255
255
255
178
112
86
255
255
255
102
56
15
5
5
5
0
0
0
0
0
0
0
0
0
0
0
0
0
0
0
0
0
0
5
5
5
5
10
10
10
10
10
15
15
15
20
20
30
239
122
107
229
107
91
91
91
102
107
107
117
117
117
127
255
76
61
56
56
61
66
66
71
76
76
76
81
91
204
198
168
168
178
249
255
255
255
255
255
255
234
153
163
102
86
81
81
86
102
163
255
255
255
255
163
86
86
132
183
188
107
20
10
5
5
5
0
0
0
0
0
0
0
0
0
0
0
0
0
0
0
0
0
0
5
5
5
5
5
10
10
10
10
10
15
15
15
20
25
255
81
112
173
163
86
86
91
102
102
102
112
117
142
168
86
51
51
51
56
61
66
66
71
76
76
76
86
96
209
255
198
163
173
255
249
255
255
255
255
229
255
147
107
76
76
76
81
86
102
209
173
244
255
219
147
66
86
96
107
35
20
15
10
5
5
5
0
0
0
0
0
0
0
0
0
0
0
0
0
0
0
0
0
0
5
5
5
5
5
5
10
10
10
10
10
15
15
15
20
30
117
122
255
255
76
86
102
107
214
91
117
204
66
51
45
45
45
51
56
61
66
71
71
76
76
81
86
255
244
255
147
163
173
188
255
255
255
255
255
214
147
142
168
71
71
76
81
86
188
214
173
178
188
142
86
51
107
209
56
20
15
15
10
5
5
5
0
0
0
0
0
0
0
0
0
0
0
0
0
0
0
0
0
0
0
5
5
5
5
5
5
10
10
10
10
10
15
15
15
25
30
112
255
239
66
76
117
122
209
66
142
71
255
35
35
40
40
45
56
66
71
71
76
76
76
81
86
102
168
229
147
168
173
178
255
204
255
209
204
255
137
255
61
61
71
76
81
86
96
107
198
142
255
112
40
35
132
117
255
20
15
10
10
5
5
5
0
0
0
0
0
0
0
0
0
0
0
0
0
0
0
0
0
0
0
5
5
5
5
5
5
5
10
10
10
10
15
15
15
20
25
51
183
209
51
40
153
132
255
71
35
35
35
35
35
35
40
45
66
127
107
76
76
76
81
81
86
91
102
107
219
183
183
168
178
183
188
188
219
132
112
61
56
56
71
76
81
86
91
96
102
107
102
204
30
25
25
25
20
15
10
10
10
5
5
5
0
0
0
0
0
0
0
0
0
0
0
0
0
0
0
0
0
0
0
5
5
5
5
5
5
5
5
10
10
10
10
15
15
20
20
132
96
102
35
30
30
35
117
45
30
25
25
30
30
30
35
51
255
142
173
81
81
81
81
86
86
91
91
96
112
188
255
158
183
255
198
255
127
117
224
51
45
56
158
96
86
91
91
91
91
102
96
40
25
20
20
20
15
10
10
10
5
5
5
0
0
0
0
0
0
0
0
0
0
0
0
0
0
0
0
0
0
0
0
5
5
5
5
5
5
5
5
5
10
10
10
10
15
15
20
45
56
66
25
25
25
25
30
30
25
25
25
25
25
30
35
66
127
122
244
86
81
81
86
86
86
91
91
91
96
117
255
127
255
255
122
117
117
107
51
40
40
56
127
102
91
96
102
91
86
107
255
35
20
20
15
15
10
10
10
10
5
5
5
0
0
0
0
0
0
0
0
0
0
0
0
0
0
0
0
0
0
0
0
0
5
5
5
5
5
5
5
5
5
10
10
10
10
15
15
30
25
20
20
20
20
20
20
20
20
20
20
25
25
30
35
255
122
107
96
91
86
86
86
86
86
91
91
91
91
107
255
107
107
255
112
107
117
255
40
35
35
61
122
107
102
117
183
137
66
122
35
25
15
15
15
10
10
10
10
5
5
5
5
0
0
0
0
0
0
0
0
0
0
0
0
0
0
0
0
0
0
0
0
0
5
5
5
5
5
5
5
5
5
5
5
10
10
10
10
15
20
20
20
15
15
15
15
15
20
20
20
20
25
25
35
107
137
107
96
91
86
86
86
86
91
86
86
86
86
96
102
102
102
102
107
117
71
40
30
30
30
35
255
122
107
112
193
234
51
30
25
20
15
15
10
10
10
10
10
5
5
5
5
0
0
0
0
0
0
0
0
0
0
0
0
0
0
0
0
0
0
0
0
0
0
5
5
5
5
5
5
5
5
5
5
5
10
10
10
10
15
15
15
15
15
15
15
15
15
15
20
20
20
25
35
255
163
107
96
96
91
91
91
91
91
91
86
86
86
91
96
102
96
96
107
193
137
35
30
25
25
30
40
204
86
112
204
255
255
25
20
15
15
10
10
10
10
10
5
5
5
5
5
0
0
0
0
0
0
0
0
0
0
0
0
0
0
0
0
0
0
0
0
0
0
5
5
5
5
5
5
5
5
5
5
5
5
10
10
10
10
10
15
15
15
15
15
15
15
15
15
20
20
20
30
45
96
112
107
96
96
102
107
102
102
91
81
81
86
91
96
102
91
86
117
127
137
30
25
25
25
25
30
112
40
209
66
255
229
20
15
15
15
10
10
10
10
5
5
5
5
5
0
0
0
0
0
0
0
0
0
0
0
0
0
0
0
0
0
0
0
0
0
0
0
0
5
5
5
5
5
5
5
5
5
5
5
5
5
10
10
10
10
10
15
15
15
15
15
15
15
15
20
20
25
35
122
198
255
102
102
112
255
255
255
127
76
76
86
91
96
107
188
71
61
35
30
25
20
20
20
20
20
25
25
25
30
112
35
20
15
15
10
10
10
10
5
5
5
5
5
5
0
0
0
0
0
0
0
0
0
0
0
0
0
0
0
0
0
0
0
0
0
0
0
0
5
5
5
5
5
5
5
5
5
5
5
5
5
5
10
10
10
10
10
10
10
15
15
15
15
15
15
20
25
30
102
255
178
96
96
112
173
173
168
112
71
71
204
102
102
255
239
142
40
30
25
20
20
20
20
20
15
20
20
20
20
30
30
15
15
10
10
10
10
5
5
5
5
5
5
5
0
0
0
0
0
0
0
0
0
0
0
0
0
0
0
0
0
0
0
0
0
0
0
0
0
5
5
5
5
5
5
5
5
5
5
5
5
5
5
10
10
10
10
10
10
10
10
10
15
15
15
20
20
30
81
255
107
86
96
214
173
224
183
255
66
61
137
107
112
137
255
255
35
25
20
20
20
15
15
15
15
15
15
15
15
15
15
10
10
10
10
5
5
5
5
5
5
5
5
0
0
0
0
0
0
0
0
0
0
0
0
0
0
0
0
0
0
0
0
0
0
0
0
0
0
0
5
5
5
5
5
5
5
5
5
5
5
5
5
5
10
10
10
10
10
10
10
10
10
15
15
15
20
30
188
117
51
112
107
173
193
255
244
147
71
51
255
117
188
158
76
102
35
20
20
20
15
15
15
15
15
15
15
15
15
10
10
10
10
10
5
5
5
5
5
5
5
5
5
0
0
0
0
0
0
0
0
0
0
0
0
0
0
0
0
0
0
0
0
0
0
0
0
0
0
0
5
5
5
5
5
5
5
5
5
5
5
5
5
5
5
10
10
10
10
10
10
10
10
10
10
15
15
20
30
35
35
112
112
127
209
255
255
234
255
40
40
40
102
30
35
147
25
20
15
15
15
15
15
15
15
15
15
10
10
10
10
10
5
5
5
5
5
5
5
5
5
5
0
0
0
0
0
0
0
0
0
0
0
0
0
0
0
0
0
0
0
0
0
0
0
0
0
0
0
0
0
5
5
5
5
5
5
5
5
5
5
5
5
5
5
5
10
10
10
10
10
10
10
10
10
10
15
15
20
25
25
51
66
117
204
255
255
209
188
35
30
30
25
25
25
25
20
15
15
15
15
15
10
10
10
10
10
10
10
10
5
5
5
5
5
5
5
5
5
5
5
5
0
0
0
0
0
0
0
0
0
0
0
0
0
0
0
0
0
0
0
0
0
0
0
0
0
0
0
0
0
0
5
5
5
5
5
5
5
5
5
5
5
5
5
5
5
10
10
10
10
10
10
10
10
10
10
15
15
20
20
25
35
51
137
239
255
255
86
35
25
20
20
20
20
15
15
15
10
10
10
10
10
10
10
10
10
10
10
5
5
5
5
5
5
5
5
5
5
5
5
0
0
0
0
0
0
0
0
0
0
0
0
0
0
0
0
0
0
0
0
0
0
0
0
0
0
0
0
0
0
0
0
5
5
5
5
5
5
5
5
5
5
5
5
5
5
5
5
10
10
10
10
10
10
10
10
10
15
15
20
20
25
35
61
178
255
107
122
25
25
20
20
15
15
15
10
10
10
10
10
10
10
10
10
10
10
5
5
5
5
5
5
5
5
5
5
5
5
5
5
0
0
0
0
0
0
0
0
0
0
0
0
0
0
0
0
0
0
0
0
0
0
0
0
0
0
0
0
0
0
0
0
0
5
5
5
5
5
5
5
5
5
5
5
5
5
5
5
5
10
10
10
10
10
10
10
10
15
15
15
20
25
35
178
91
96
107
51
25
20
20
15
15
15
10
10
10
10
10
10
10
10
10
10
10
5
5
5
5
5
5
5
5
5
5
5
5
5
5
0
0
0
0
0
0
0
0
0
0
0
0
0
0
0
0
0
0
0
0
0
0
0
0
0
0
0
0
0
0
0
0
0
0
0
5
5
5
5
5
5
5
5
5
5
5
5
5
5
5
5
10
10
10
10
10
10
10
10
15
15
15
20
35
107
102
81
112
117
20
15
15
15
15
10
10
10
10
10
10
10
10
10
10
5
5
5
5
5
5
5
5
5
5
5
5
5
5
5
0
0
0
0
0
0
0
0
0
0
0
0
0
0
0
0
0
0
0
0
0
0
0
0
0
0
0
0
0
0
0
0
0
0
0
0
0
5
5
5
5
5
5
5
5
5
5
5
5
5
5
5
5
10
10
10
10
10
10
10
10
15
15
15
56
193
255
81
35
25
15
15
15
15
10
10
10
10
10
10
10
10
10
10
5
5
5
5
5
5
5
5
5
5
5
5
5
5
5
5
0
0
0
0
0
0
0
0
0
0
0
0
0
0
0
0
0
0
0
0
0
0
0
0
0
0
0
0
0
0
0
0
0
0
0
0
0
0
5
5
5
5
5
5
5
5
5
5
5
5
5
5
5
5
5
10
10
10
10
10
10
10
15
15
20
30
163
117
25
20
15
15
15
10
10
10
10
10
10
10
10
10
5
5
5
5
5
5
5
5
5
5
5
5
5
5
5
5
5
0
0
0
0
0
0
0
0
0
0
0
0
0
0
0
0
0
0
0
0
0
0
0
0
0
0
0
0
0
0
0
0
0
0
0
0
0
0
0
0
5
5
5
5
5
5
5
5
5
5
5
5
5
5
5
5
5
10
10
10
10
10
10
10
15
15
20
107
30
20
15
15
15
10
10
10
10
10
10
10
10
10
5
5
5
5
5
5
5
5
5
5
5
5
5
5
5
5
5
0
0
0
0
0
0
0
0
0
0
0
0
0
0
0
0
0
0
0
0
0
0
0
0
0
0
0
0
0
0
0
0
0
0
0
0
0
0
0
0
0
0
0
5
5
5
5
5
5
5
5
5
5
5
5
5
5
5
5
5
10
10
10
10
10
10
15
15
20
20
15
15
10
10
10
10
10
10
10
10
10
5
5
5
5
5
5
5
5
5
5
5
5
5
5
5
5
5
5
0
0
0
0
0
0
0
0
0
0
0
0
0
0
0
0
0
0
0
0
0
0
0
0
0
0
0
0
0
0
0
0
0
0
0
0
0
0
0
0
0
0
0
0
0
5
5
5
5
5
5
5
5
5
5
5
5
5
5
5
5
5
5
10
10
10
10
10
10
10
10
10
10
10
10
10
10
10
10
10
5
5
5
5
5
5
5
5
5
5
5
5
5
5
5
5
5
5
5
0
0
0
0
0
0
0
0
0
0
0
0
0
0
0
0
0
0
0
0
0
0
0
0
0
0
0
0
0
0
0
0
0
0
0
0
0
0
0
0
0
0
0
0
0
0
0
0
5
5
5
5
5
5
5
5
5
5
5
5
5
5
5
5
5
5
10
10
10
10
10
10
10
10
10
10
10
10
5
5
5
5
5
5
5
5
5
5
5
5
5
5
5
5
5
5
5
5
5
0
0
0
0
0
0
0
0
0
0
0
0
0
0
0
0
0
0
0
0
0
0
0
0
0
0
0
0
0
0
0
0
0
0
0
0
0
0
0
0
0
0
0
0
0
0
0
0
0
0
0
5
5
5
5
5
5
5
5
5
5
5
5
5
5
5
5
5
5
5
5
5
5
5
5
5
5
5
5
5
5
5
5
5
5
5
5
5
5
5
5
5
5
5
5
5
5
5
5
0
0
0
0
0
0
0
0
0
0
0
0
0
0
0
0
0
0
0
0
0
0
0
0
0
0
0
0
0
0
0
0
0
0
0
0
0
0
0
0
0
0
0
0
0
0
0
0
0
0
0
0
0
0
5
5
5
5
5
5
5
5
5
5
5
5
5
5
5
5
5
5
5
5
5
5
5
5
5
5
5
5
5
5
5
5
5
5
5
5
5
5
5
5
5
5
5
5
0
0
0
0
0
0
0
0
0
0
0
0
0
0
0
0
0
0
0
0
0
0
0
0
0
0
0
0
0
0
0
0
0
0
0
0
0
0
0
0
0
0
0
0
0
0
0
0
0
0
0
0
0
0
0
0
0
0
0
5
5
5
5
5
5
5
5
5
5
5
5
5
5
5
5
5
5
5
5
5
5
5
5
5
5
5
5
5
5
5
5
5
5
5
5
5
5
5
0
0
0
0
0
0
0
0
0
0
0
0
0
0
0
0
0
0
0
0
0
0
0
0
0
0
0
0
0
0
0
0
0
0
0
0
0
0
0
0
0
0
0
0
0
0
0
0
0
0
0
0
0
0
0
0
0
0
0
0
0
0
0
0
0
5
5
5
5
5
5
5
5
5
5
5
5
5
5
5
5
5
5
5
5
5
5
5
5
5
5
5
5
5
5
5
5
5
0
0
0
0
0
0
0
0
0
0
0
0
0
0
0
0
0
0
0
0
0
0
0
0
0
0
0
0
0
0
0
0
0
0
0
0
0
0
0
0
0
0
0
0
0
0
0
0
0
0
0
0
0
0
0
0
0
0
0
0
0
0
0
0
0
0
0
0
0
0
0
5
5
5
5
5
5
5
5
5
5
5
5
5
5
5
5
5
5
5
5
5
5
5
5
5
5
5
0
0
0
0
0
0
0
0
0
0
0
0
0
0
0
0
0
0
0
0
0
0
0
0
0
0
0
0
0
0
0
0
0
0
0
0
0
0
0
0
0
0
0
0
0
0
0
0
0
0
0
0
0
0
0
0
0
0
0
0
0
0
0
0
0
0
0
0
0
0
0
0
0
0
0
0
0
0
0
5
5
5
5
5
5
5
5
5
5
5
5
5
5
5
5
5
0
0
0
0
0
0
0
0
0
0
0
0
0
0
0
0
0
0
0
0
0
0
0
0
0
0
0
0
0
0
0
0
0
0
0
0
0
0
0
0
0
0
0
0
0
0
0
0
0
0
0
0
0
0
0
0
0
0
0
0
0
0
0
0
0
0
0
0
0
0
0
0
0
0
0
0
0
0
0
0
0
0
0
0
0
0
0
0
0
0
0
0
0
0
0
0
0
0
0
0
0
0
0
0
0
0
0
0
0
0
0
0
0
0
0
0
0
0
0
0
0
0
0
0
0
0
0
0
0
0
0
0
0
0
0
0
0
0
0
0
0
0
0
0
0
0
0
0
0
0
0
0
0
0
0
0
0
0
0
0
0
0
0
0
0
0
0
0
0
0
0
0
0
0
0
0
0
0
0
0
0
0
0
0
0
0
0
0
0
0
0
0
0
0
0
0
0
0
0
0
0
0
0
0
0
0
0
0
0
0
0
0
0
0
0
0
0
0
0
0
0
0
0
0
0
0
0
0
0
0
0
0
0
0
0
0
0
0
0
0
0
0
0
0
0
0
0
0
0
0
0
0
0
0
0
0
0
0
0
0
0
0
0
0
0
0
0
0
0
0
0
0
0
0
0
0
0
0
0
0
0
0
0
0
0
0
0
0
0
0
0
0
0
0
0
0
0
0
0
0
0
0
0
0
0
0
0
0
0
0
0
0
0
0
0
0
0
0
0
0
0
0
0
0
0
0
0
0
0
0
0
0
0
0
0
0
0
0
0
0
0
0
0
0
0
0
0
0
0
0
0
0
0
0
0
0
0
0
0
0
0
0
0
0
0
0
0
0
0
0
0
0
0
0
0
0
0
0
0
0
0
0
0
0
0
0
0
0
0
0
0
0
0
0
0
0
0
0
0
0
0
0
0
0
0
0
0
0
0
0
0
0
0
0
0
0
0
0
0
0
0
0
0
0
0
0
0
0
0
0
0
0
0
0
0
0
0
0
0
0
0
0
0
0
0
0
0
0
0
0
0
0
0
0
0
0
0
0
0
0
0
0
0
0
0
0
0
0
0
0
0
0
0
0
0
0
0
0
0
0
0
0
0
0
0
0
0
0
0
0
0
0
0
0
0
0
0
0
0
0
0
0
0
0
0
0
0
0
0
0
0
0
0
0
0
0
0
0
0
0
0
0
0
0
0
0
0
0
0
0
0
0
0
0
0
0
0
0
0
0
0
0
0
0
0
0
0
0
0
0
0
0
0
0
0
0
0
0
0
0
0
0
0
0
0
0
0
0
0
0
0
0
0
0
0
0
0
0
0
0
0
0
0
0
0
0
0
0
0
0
0
0
0
0
0
0
0
0
0
0
0
0
0
0
0
0
0
0
0
0
0
0
0
0
0
0
0
0
0
0
0
0
0
0
0
0
0
0
0
0
0
0
0
0
0
0
0
0
0
0
0
0
0
0
0
0
0
0
0
0
0
0
0
0
0
0
0
0
0
0
0
0
0
0
0
0
0
0
0
0
0
0
0
0
0
0
0
0
0
0
0
0
0
0
0
0
0
0
0
0
0
0
0
0
0
0
0
0
0
0
0
0
0
0
0
0
0
0
0
0
0
0
0
0
0
0
0
0
0
0
0
0
0
0
0
0
0
0
0
0
0
0
0
0
0
0
0
0
0
0
0
0
0
0
0
0
0
0
0
0
0
0
0
0
0
0
0
0
0
0
0
0
0
0
0
0
0
0
0
0
0
0
0
0
0
0
0
0
0
0
0
0
0
0
0
0
0
0
0
0
0
0
0
0
0
0
0
0
0
0
0
0
0
0
0
0
0
0
0
0
0
0
0
0
0
0
0
0
0
0
0
0
0
0
0
0
0
0
0
0
0
0
0
0
0
0
0
0
0
0
0
0
0
0
0
0
0
0
0
0
0
0
0
0
0
0
0
0
0
0
0
0
0
0
0
0
0
0
0
0
0
0
0
0
0
0
0
0
0
0
0
0
0
0
0
0
0
0
0
0
0
0
0
0
0
0
0
0
0
0
0
0
0
0
0
0
0
0
0
0
0
0
0
0
0
0
0
0
0
0
0
0
0
0
0
0
0
0
0
0
0
0
0
0
0
0
0
0
0
0
0
0
0
0
0
0
0
0
0
0
0
0
0
0
0
0
0
0
0
0
0
0
0
0
0
0
0
0
0
0
0
0
0
0
0
0
0
0
0
0
0
0
0
0
0
0
0
0
0
0
0
0
0
0
0
0
0
0
0
0
0
0
0
0
0
0
0
0
0
0
0
0
0
0
0
0
0
0
0
0
0
0
0
0
0
0
0
0
0
0
0
0
0
0
0
0
0
0
0
0
0
0
0
0
0
0
0
0
0
0
0
0
0
0
0
0
0
0
0
0
0
0
0
0
0
0
0
0
0
0
0
0
0
0
0
0
0
0
0
0
0
0
0
0
0
0
0
0
0
0
0
0
0
0
0
0
0
0
0
0
0
0
0
0
0
0
0
0
0
0
0
0
0
0
0
0
0
0
0
0
0
0
0
0
0
0
0
0
0
0
0
0
0
0
0
0
0
0
0
0
0
0
0
0
0
0
0
0
0
0
0
0
0
0
0
0
0
0
0
0
0
0
0
0
0
0
0
0
0
0
0
0
0
0
0
0
0
0
0
0
0
0
0
0
0
0
0
0
0
0
0
0
0
0
0
0
0
0
0
0
0
0
0
0
0
0
0
0
0
0
0
0
0
0
0
0
0
0
0
0
0
0
0
0
0
0
0
0
0
0
0
0
0
