P2
# CREATOR: GIMP PNM Filter Version 1.1
100 100
255
255
246
233
218
203
190
179
171
167
166
168
173
180
179
171
167
165
166
171
180
191
204
218
232
245
255
246
233
219
205
193
184
178
175
176
181
188
199
201
198
200
205
212
222
232
234
235
238
241
247
255
243
227
209
192
178
167
162
161
164
171
180
190
187
172
158
146
139
137
141
151
167
187
210
233
255
237
221
210
202
199
200
204
212
221
232
242
250
254
246
236
225
215
207
203
202
205
212
223
238
236
227
215
201
187
174
164
157
154
153
156
161
168
175
169
165
164
166
171
180
192
205
220
231
236
242
247
244
232
218
206
196
190
187
188
192
200
210
205
202
204
210
219
229
241
242
242
241
236
236
242
241
231
222
206
191
180
174
172
174
181
189
198
191
176
162
150
143
140
144
154
169
189
211
235
251
236
220
208
200
196
196
199
205
214
223
233
241
245
236
225
214
204
197
192
192
195
203
214
229
218
210
199
186
174
163
154
148
145
145
149
154
161
169
166
162
161
164
170
179
191
205
220
224
228
235
245
244
241
228
216
207
201
199
200
204
212
210
203
202
204
211
221
232
245
249
242
232
226
225
229
241
231
223
217
205
194
187
184
186
191
199
207
196
181
166
154
147
144
148
157
172
191
213
236
241
236
221
209
200
195
194
196
201
209
217
225
232
237
228
217
205
195
187
182
181
185
192
204
218
202
195
185
175
164
155
148
143
141
142
146
151
158
166
162
159
158
161
168
177
189
203
218
222
226
232
242
244
242
234
223
216
211
209
211
216
212
205
199
198
202
209
219
232
246
251
238
227
219
216
219
229
234
226
221
219
208
201
197
197
201
208
214
200
185
171
160
152
150
153
162
176
194
215
227
228
228
222
211
202
197
195
196
200
205
212
219
226
230
224
211
198
186
178
173
171
175
182
193
208
188
183
176
167
159
151
146
142
141
142
146
152
159
164
159
156
156
159
165
174
186
200
215
223
227
234
242
246
243
237
228
222
218
218
219
212
206
199
194
193
197
205
216
229
244
249
237
225
215
210
211
220
232
232
227
225
222
214
209
209
212
217
218
205
191
177
166
159
156
159
168
181
198
211
214
214
213
215
213
205
200
197
198
200
204
210
215
221
225
222
207
193
180
171
165
163
166
173
184
198
178
175
170
164
158
152
147
145
144
146
149
155
162
161
156
153
153
156
163
172
184
197
212
227
232
238
246
248
243
237
231
226
224
219
212
205
199
193
189
188
192
200
211
225
240
244
240
226
214
208
207
213
224
237
234
232
232
226
220
219
221
226
223
210
197
184
173
167
164
167
175
188
198
200
201
200
199
199
201
205
203
201
200
202
205
209
213
217
221
221
206
191
177
166
159
156
158
165
176
190
171
171
168
164
160
156
153
151
150
152
155
160
165
159
154
151
152
155
161
170
181
195
209
223
237
244
252
250
243
236
231
226
220
213
206
199
193
188
184
184
188
195
206
219
234
239
244
230
217
208
205
209
218
230
241
239
238
236
230
228
229
233
228
216
203
191
182
176
174
177
185
189
189
189
190
188
185
185
186
188
192
198
204
205
207
209
212
216
218
218
208
191
175
163
155
152
154
160
170
184
168
170
170
168
166
163
160
159
158
160
162
167
164
158
154
151
152
155
160
169
180
193
207
221
234
244
252
245
238
233
229
223
216
209
202
195
189
184
182
182
185
191
201
213
227
235
240
236
222
212
207
209
215
225
236
245
244
244
238
235
235
238
233
222
210
199
191
186
185
188
185
183
182
181
181
178
174
172
172
173
176
181
188
197
207
211
213
215
217
217
212
193
177
163
154
150
151
157
167
180
169
173
175
175
174
172
170
169
168
168
170
170
165
160
156
153
153
156
162
170
180
193
206
220
232
243
246
239
233
229
226
221
213
206
199
192
187
183
181
181
184
189
197
207
220
233
237
242
230
219
212
211
215
223
233
243
249
248
243
240
240
243
238
228
218
208
201
197
194
187
182
179
177
176
175
171
166
163
160
160
162
166
173
181
193
205
214
216
217
216
213
198
180
166
156
151
151
156
166
178
172
179
182
184
184
183
181
180
178
177
175
172
169
164
160
158
158
160
165
172
182
194
207
220
233
243
240
234
228
224
221
219
211
204
198
192
187
184
183
183
184
187
193
202
213
226
234
239
240
228
219
216
218
224
232
241
250
251
247
243
242
245
244
235
225
217
211
201
192
185
180
177
175
174
172
168
162
157
152
150
150
153
159
167
179
192
208
216
217
215
212
204
185
170
159
154
154
158
167
179
177
186
188
184
181
179
178
178
178
178
178
178
175
171
167
165
164
166
171
178
187
198
211
223
235
242
235
229
224
220
217
215
210
204
198
193
190
188
187
186
186
187
191
197
206
218
231
237
243
239
229
224
224
228
234
242
250
253
248
244
244
246
250
241
233
222
210
200
192
185
181
178
176
175
172
168
161
154
148
144
142
144
148
156
167
180
196
214
216
214
211
208
191
175
164
158
158
162
171
182
183
187
182
178
177
176
177
179
181
184
186
186
185
181
177
175
174
176
180
186
195
205
217
229
241
240
234
228
222
217
213
210
209
204
200
196
194
192
192
190
189
188
190
194
201
210
221
234
241
248
239
233
232
234
239
245
252
252
247
244
243
246
254
246
234
221
210
200
193
187
183
181
180
178
176
171
164
156
148
142
138
138
141
148
158
171
187
205
214
212
208
206
198
181
170
164
163
167
176
186
189
184
180
178
177
178
181
185
189
194
196
197
198
194
191
188
187
188
192
198
206
216
227
239
246
242
236
229
222
216
211
206
202
200
200
200
199
198
198
196
193
191
190
192
196
203
213
225
237
247
250
243
240
242
245
250
254
249
245
242
242
246
251
246
233
221
210
201
195
190
187
185
185
184
182
177
170
161
152
144
139
137
139
144
153
165
181
199
210
207
203
201
202
187
176
170
169
173
181
191
191
185
182
182
183
186
190
196
202
201
199
198
202
209
207
204
203
204
207
213
221
230
241
253
247
237
230
223
218
214
210
203
198
193
190
189
190
192
197
201
197
193
191
191
194
199
207
217
229
240
251
249
246
246
248
251
249
245
241
239
240
244
248
246
233
221
211
203
197
193
191
190
191
191
184
176
172
169
159
151
145
141
142
146
154
165
180
197
201
198
195
194
196
192
181
176
175
179
186
196
189
185
184
184
187
192
198
205
212
207
203
202
204
211
219
221
219
220
223
229
236
245
249
244
233
223
215
210
205
203
201
201
196
189
183
180
179
180
184
193
202
198
195
193
194
198
204
212
222
232
242
249
246
246
248
248
244
241
239
239
242
246
249
243
231
220
210
203
199
196
195
196
197
186
175
167
164
165
167
158
152
148
148
151
158
169
183
191
190
188
186
186
188
195
186
181
180
183
190
198
187
184
184
186
191
197
205
213
221
215
210
208
209
215
221
227
233
236
239
242
243
243
241
231
220
210
202
196
192
191
191
192
195
188
180
174
170
170
173
181
191
203
200
198
198
200
204
210
217
226
234
240
243
244
243
242
240
239
239
241
245
251
250
238
227
217
210
205
201
200
200
202
193
180
169
162
160
161
164
165
159
156
155
159
166
176
179
178
178
176
176
177
181
189
192
187
185
187
192
199
185
184
185
188
194
201
210
220
230
226
220
216
216
220
224
229
233
236
238
240
240
239
230
220
209
199
190
184
180
179
179
182
186
189
179
171
165
162
164
170
180
191
203
204
203
204
206
210
215
221
227
232
235
236
236
236
236
237
240
243
249
254
245
233
224
216
210
206
205
205
206
202
189
177
167
161
160
161
163
166
166
163
164
167
170
168
167
166
166
166
167
169
175
183
195
194
192
192
195
199
184
185
187
191
198
206
215
225
236
239
232
227
225
226
229
232
234
236
238
238
237
230
222
212
202
191
182
175
170
168
169
172
177
184
181
171
163
158
159
163
170
179
190
201
211
211
211
213
215
218
222
226
228
229
230
231
233
236
241
246
249
247
239
229
221
215
211
210
210
211
213
200
188
177
169
165
164
165
166
167
167
167
166
164
161
158
156
155
156
157
160
164
170
180
192
203
200
198
199
200
186
188
191
196
202
210
220
230
241
252
246
239
235
234
235
236
237
238
237
234
230
225
217
209
199
188
177
169
163
160
159
162
167
175
184
174
164
158
156
158
162
169
178
188
199
210
218
217
217
218
220
221
222
223
225
227
230
235
241
246
243
240
235
226
220
216
214
214
216
218
213
200
189
180
174
171
172
172
172
171
169
167
163
159
155
151
148
147
149
151
155
161
168
178
190
204
210
206
204
203
190
193
197
202
208
216
222
227
234
242
246
237
232
229
229
229
230
231
231
230
227
223
217
209
200
189
177
167
159
154
152
154
159
166
176
180
168
160
157
156
157
161
168
176
186
198
210
221
222
220
219
219
219
219
221
224
228
234
242
242
238
234
232
225
220
219
219
220
223
226
214
202
193
186
182
181
182
182
181
179
175
170
164
158
152
147
143
143
145
149
154
160
169
179
191
204
218
216
211
207
197
201
206
210
210
208
209
213
219
227
236
235
229
225
224
224
225
227
228
228
228
225
221
214
205
194
180
168
158
151
147
147
151
159
168
180
175
166
160
157
155
156
160
166
175
186
199
212
225
224
220
218
217
217
218
221
226
233
241
240
235
231
228
226
223
224
226
229
232
226
216
206
199
194
192
193
195
195
193
189
183
176
169
161
153
147
142
142
145
149
156
163
172
182
194
205
218
227
220
213
206
212
216
209
203
199
199
201
206
214
223
233
228
223
221
222
223
226
228
231
231
231
228
223
214
202
188
174
161
151
145
143
146
152
162
174
185
173
167
161
156
154
155
159
167
177
190
204
219
230
224
220
217
216
217
219
224
231
240
240
234
230
227
228
229
231
234
238
238
228
219
211
207
204
204
207
210
206
199
194
191
185
176
166
157
150
145
144
148
153
161
169
178
188
198
209
219
229
230
220
217
224
216
206
198
193
191
192
196
202
211
222
228
223
221
222
224
228
232
235
238
240
238
234
226
214
198
182
167
155
146
142
143
148
157
169
182
183
175
167
160
155
153
155
161
171
184
199
215
230
230
224
220
217
217
219
223
230
238
243
236
231
228
230
235
240
245
248
238
229
222
217
215
215
217
222
219
210
203
197
194
193
186
175
165
157
151
150
154
160
168
177
186
196
205
214
222
230
238
230
230
230
218
207
198
191
186
186
188
194
203
213
225
224
222
223
227
231
237
243
247
250
251
248
240
228
211
193
176
161
150
144
143
147
155
167
180
193
185
175
165
158
154
154
159
168
181
197
214
230
237
230
224
220
219
220
223
229
236
245
241
236
233
234
239
247
254
246
238
231
226
223
223
226
230
235
224
215
207
201
198
196
196
185
175
166
161
159
163
170
178
186
194
199
206
216
227
233
239
242
243
236
223
211
200
192
186
184
185
190
199
209
222
226
225
226
230
237
244
251
254
249
248
250
252
242
225
205
187
170
157
150
147
150
157
168
182
195
195
184
173
164
158
157
161
170
183
199
217
233
246
238
231
225
222
222
224
228
234
241
248
243
240
240
245
248
241
236
231
229
229
229
231
235
241
244
232
222
214
207
202
199
197
197
186
178
172
170
174
180
179
177
179
183
190
200
212
226
241
246
255
244
231
218
206
197
190
187
188
192
200
211
224
229
227
230
235
242
250
251
244
239
236
237
243
255
238
218
198
181
167
159
156
158
165
176
189
202
203
192
181
172
166
165
168
177
190
206
224
241
255
245
235
229
225
223
225
228
232
237
242
247
249
247
242
236
228
222
217
215
215
219
225
233
244
255
244
233
224
215
209
204
200
197
195
190
184
182
180
174
169
166
166
170
176
186
198
212
227
242
243
236
234
226
214
204
196
193
192
196
203
214
227
232
231
235
241
247
247
243
234
228
224
224
230
242
248
232
212
194
180
171
167
169
175
185
198
211
214
202
191
182
176
175
179
187
200
213
223
233
243
236
227
219
215
213
214
218
224
231
238
241
242
239
233
226
219
212
207
205
205
208
214
222
233
244
243
242
233
224
215
208
202
197
193
189
185
180
172
165
160
156
155
158
163
172
183
197
211
226
231
223
220
222
220
209
201
196
195
197
203
212
224
237
238
242
249
248
242
232
223
215
211
211
215
226
243
242
228
210
196
185
180
180
185
194
205
218
227
216
205
196
190
188
191
194
196
201
209
218
227
230
221
213
208
205
205
208
213
220
228
236
239
235
229
222
215
208
203
201
201
203
209
216
226
236
232
231
233
230
220
211
203
196
190
184
179
172
164
157
150
146
145
146
151
158
169
181
195
209
218
210
207
208
212
213
204
198
195
196
200
208
219
233
243
250
253
243
232
221
211
203
198
197
201
211
227
245
237
227
212
200
194
192
195
201
211
223
234
232
221
212
205
199
190
185
185
188
194
202
210
218
216
208
202
199
198
200
204
211
218
227
234
236
230
223
216
210
205
202
201
203
208
214
222
225
220
219
220
224
223
213
204
195
187
180
173
166
158
150
143
138
136
137
140
146
155
167
179
192
207
198
194
195
199
206
206
199
195
194
197
203
213
225
235
243
245
234
223
212
202
193
188
186
188
197
211
229
240
232
224
216
207
204
204
209
217
227
238
248
237
223
207
194
184
177
175
176
180
186
192
200
209
204
198
193
191
193
196
202
210
218
227
234
235
228
222
216
211
208
206
207
210
215
218
212
208
207
207
210
214
216
205
196
187
178
171
163
155
147
140
134
131
131
133
138
146
155
166
178
197
187
183
183
187
193
202
200
195
192
193
197
205
217
227
235
238
227
216
205
194
186
180
177
179
185
198
214
232
234
226
219
215
214
214
217
223
232
239
248
238
221
204
190
179
171
167
166
168
172
176
182
191
201
193
188
186
186
189
195
202
211
221
230
238
237
231
225
220
217
214
214
214
212
206
201
197
196
196
198
201
206
209
199
189
180
172
164
156
148
141
135
131
130
131
134
140
148
158
168
190
180
174
173
176
182
190
200
194
190
189
192
198
209
218
226
233
223
212
201
191
182
176
172
173
178
188
203
219
235
226
219
213
210
210
211
215
220
226
234
235
218
202
188
176
167
162
159
159
161
163
168
176
185
189
183
180
180
182
188
196
205
216
227
237
247
243
238
233
228
220
213
206
200
195
191
188
186
186
188
191
194
199
204
196
186
178
169
162
154
147
141
136
134
134
136
140
146
154
163
186
174
167
164
166
171
179
189
194
189
187
188
193
202
211
219
226
222
211
201
191
182
176
172
171
174
182
195
209
225
227
219
212
207
205
205
207
210
216
223
231
216
201
187
175
166
159
154
153
152
153
156
163
172
182
178
174
173
176
181
189
200
212
224
237
249
250
238
228
218
210
202
196
191
186
183
181
180
179
181
183
186
190
194
200
197
188
180
173
166
158
152
147
144
142
143
145
150
156
163
184
171
162
158
158
161
168
178
191
189
185
185
188
197
205
214
221
225
214
204
195
186
180
175
173
175
181
190
203
217
226
218
211
206
202
201
201
204
208
215
222
214
200
187
175
166
158
153
150
148
147
149
154
162
172
171
168
167
169
175
183
194
207
222
230
234
239
233
221
211
202
195
189
185
181
179
177
176
176
176
178
181
184
188
193
198
203
196
189
182
175
168
163
159
156
155
156
158
163
168
184
170
160
153
151
153
158
168
180
190
186
184
186
193
202
210
219
227
221
211
202
195
188
183
180
180
183
190
200
212
223
217
210
205
201
199
199
201
205
210
216
211
198
187
176
168
160
155
151
148
145
146
150
156
164
164
161
160
162
168
177
189
203
214
216
220
224
230
218
207
198
191
186
182
179
177
176
175
175
176
177
179
182
186
190
196
201
207
210
203
196
189
183
178
174
171
171
171
174
178
185
171
159
150
146
146
149
157
168
182
188
185
186
192
200
209
218
227
231
222
213
206
199
194
190
188
189
194
201
209
219
216
210
205
202
200
199
201
204
209
213
207
197
188
179
171
165
159
155
151
148
146
149
154
161
156
152
152
155
161
170
182
197
201
203
206
211
217
217
206
197
191
186
183
182
180
179
178
177
178
179
181
183
187
191
196
201
208
214
220
220
213
206
200
195
191
189
188
189
191
187
172
158
148
142
139
141
148
157
170
184
188
189
194
201
210
219
229
239
235
227
220
213
207
202
199
198
200
204
210
217
214
210
206
204
202
202
204
207
211
212
203
196
188
182
176
171
166
162
158
154
151
152
156
153
147
143
143
146
152
162
174
190
191
192
195
200
207
217
210
202
195
191
189
188
186
185
183
183
183
183
184
186
189
193
198
203
210
217
223
228
233
231
224
218
213
209
206
206
207
187
172
158
146
138
134
134
139
147
158
172
186
193
197
204
212
222
232
243
250
242
235
228
222
216
211
209
208
210
213
214
212
209
208
207
207
208
210
213
211
205
199
194
189
185
181
178
175
172
168
163
160
159
150
143
136
133
132
135
141
151
164
179
183
185
188
193
201
211
220
211
205
201
199
197
196
194
192
191
190
189
190
191
193
196
200
205
211
218
225
231
236
241
247
240
234
228
224
222
221
185
171
157
144
135
130
128
131
138
148
160
173
185
195
204
212
221
229
237
245
243
233
225
219
215
214
214
213
212
211
210
209
209
209
210
212
214
213
208
203
198
194
191
189
187
186
185
184
179
171
165
158
150
141
132
126
122
121
123
129
139
151
166
180
181
185
190
199
210
224
226
220
215
213
207
198
193
189
187
185
185
185
187
189
192
195
199
203
207
212
219
227
235
244
252
251
245
239
235
230
180
175
161
148
138
131
128
129
134
141
151
162
173
182
190
197
205
212
220
227
235
227
219
212
208
206
206
206
205
205
206
207
208
210
213
215
211
207
202
197
193
191
190
189
190
191
192
187
177
168
161
154
144
135
126
119
115
114
116
121
130
142
156
172
176
180
187
196
209
224
241
235
231
216
202
192
186
181
177
174
173
172
173
174
177
179
183
186
190
195
202
209
218
227
235
244
245
238
231
225
174
180
169
156
146
138
134
133
135
140
147
155
164
171
178
184
189
196
202
209
217
221
213
206
202
200
199
199
199
200
202
204
207
211
215
213
209
204
199
195
192
190
189
190
192
195
197
191
180
169
161
153
143
133
124
117
113
111
113
118
126
136
149
164
170
174
182
192
205
222
240
250
232
214
198
187
180
173
168
165
163
162
162
163
165
168
171
174
177
181
187
194
202
211
221
230
239
238
230
224
169
175
180
168
158
149
143
140
140
142
147
152
158
164
168
172
176
180
185
192
199
208
208
202
198
196
195
195
196
197
199
202
206
211
216
214
209
204
199
195
192
191
190
192
194
198
202
198
186
175
165
156
146
135
126
119
114
112
113
117
124
134
145
157
162
167
176
187
201
218
237
247
233
214
197
185
176
168
162
158
155
154
153
155
157
159
162
165
167
171
176
182
190
198
208
218
228
237
232
225
166
171
176
181
172
163
156
151
149
148
150
152
156
159
161
162
164
166
170
176
183
192
202
200
196
194
193
193
194
196
198
202
206
211
216
217
212
208
203
198
195
193
193
194
197
201
205
209
196
184
173
162
151
141
131
124
119
116
117
120
126
134
143
150
154
160
169
181
195
213
229
236
237
217
199
186
175
166
159
154
150
148
148
149
151
154
156
159
160
163
166
172
179
187
196
207
218
229
235
228
165
169
173
177
180
178
171
165
160
158
156
156
156
157
156
155
154
155
157
162
169
179
190
201
198
196
195
195
196
197
199
202
206
211
216
222
218
214
209
204
200
197
196
197
200
203
208
213
209
195
183
172
160
149
139
131
126
123
123
125
129
135
139
142
146
150
159
172
188
206
220
227
232
222
200
186
176
167
159
153
148
146
145
146
148
150
153
155
155
157
159
163
169
177
187
198
210
222
235
233
168
171
173
175
176
177
178
179
174
169
165
162
159
157
154
150
147
146
147
151
159
169
181
196
203
201
200
200
200
201
202
204
208
212
216
222
225
221
216
211
206
202
200
200
202
206
211
216
220
209
196
183
171
159
149
141
135
131
130
131
134
132
131
133
138
141
145
157
175
195
211
219
226
232
210
189
176
166
157
151
148
145
144
145
146
149
151
152
152
152
153
156
161
169
178
190
203
217
231
240
175
176
177
176
175
174
173
173
174
176
176
170
165
160
154
148
143
140
140
144
151
162
176
192
209
209
208
207
207
206
207
208
210
213
217
222
229
230
225
219
213
208
205
204
205
209
213
219
224
224
210
196
183
170
160
151
145
140
138
136
128
124
123
124
131
135
137
148
161
180
200
212
221
228
222
202
182
168
156
152
150
147
145
145
146
148
142
140
144
149
149
150
155
161
171
183
197
213
229
244
185
186
184
181
177
173
171
169
169
171
174
179
172
165
157
148
141
137
136
139
147
159
174
192
210
220
218
217
215
214
213
213
213
215
218
222
229
237
234
227
221
215
210
208
209
212
216
222
227
230
224
209
195
182
171
162
155
149
142
131
124
119
117
116
124
130
133
141
154
168
187
204
217
226
232
215
196
178
162
156
155
150
147
146
147
141
133
131
135
143
144
145
148
155
164
177
192
209
227
244
199
198
194
189
183
177
172
169
167
168
171
176
180
171
161
150
142
136
134
138
146
159
175
194
214
231
230
228
225
222
220
218
217
217
219
223
229
237
242
235
227
220
211
205
204
207
215
225
230
234
235
221
206
193
181
171
163
154
140
129
121
117
117
119
124
129
133
140
150
163
177
194
212
224
231
226
208
191
173
160
155
152
149
147
147
136
127
124
128
136
140
140
143
149
158
171
187
205
225
244
216
214
209
201
192
184
177
171
168
168
170
175
181
178
166
153
143
137
135
139
147
161
179
199
221
241
240
238
235
231
227
224
222
221
221
224
230
239
248
241
229
215
204
196
193
196
203
214
229
239
240
231
215
202
189
179
170
156
142
130
122
117
118
124
128
133
138
144
152
162
174
188
204
221
234
236
219
201
183
167
157
152
150
147
146
133
124
121
124
133
135
134
137
143
152
166
183
202
222
243
235
233
226
216
205
195
186
178
174
172
174
177
183
183
170
157
146
140
138
141
151
165
184
205
228
249
246
235
229
227
229
230
226
224
224
227
232
241
251
241
224
209
197
189
186
187
194
206
221
239
247
237
221
207
194
183
174
160
146
134
126
121
122
127
131
136
141
146
153
162
173
186
202
218
236
247
228
210
192
176
163
153
150
145
142
133
125
122
125
131
128
127
130
136
146
160
177
197
219
240
255
253
245
234
222
210
199
191
185
182
182
185
190
187
173
160
149
142
141
145
155
170
189
211
234
255
239
228
223
221
223
227
230
228
228
231
237
246
250
235
219
204
192
184
181
184
191
203
219
237
255
238
222
207
194
183
173
165
154
142
134
130
130
128
125
130
139
150
155
163
172
185
199
215
233
253
233
213
196
179
165
154
146
140
136
134
131
128
127
123
120
119
122
128
139
153
171
192
214
236
235
238
247
249
240
227
215
205
198
194
193
195
200
190
176
163
152
146
145
150
160
176
196
218
241
249
233
222
217
215
217
222
228
234
235
238
244
249
243
227
211
197
187
181
179
183
192
205
222
240
243
236
220
205
192
180
170
162
154
148
142
136
129
117
113
117
127
142
158
163
172
185
200
215
232
251
234
214
197
179
164
151
140
133
127
124
121
119
115
112
109
109
112
119
130
145
163
183
205
227
215
219
228
241
244
242
229
218
210
205
204
205
207
193
179
166
156
151
151
156
167
184
204
226
242
241
226
216
212
211
213
218
224
231
238
243
246
247
233
217
203
190
181
177
178
183
194
208
225
228
227
231
218
203
190
178
168
158
150
143
136
130
121
106
103
108
117
131
147
164
174
184
198
214
231
249
236
217
198
180
163
148
136
126
119
113
110
107
103
100
98
98
102
109
120
135
152
172
193
214
198
203
213
226
239
238
239
230
221
216
214
215
212
197
183
170
161
156
157
164
175
192
212
234
230
229
220
212
208
208
212
217
223
230
237
242
245
235
221
206
193
183
176
174
177
184
196
211
217
210
209
214
218
204
191
179
167
157
148
140
132
124
115
103
100
102
112
125
141
158
175
191
199
211
227
243
236
218
200
182
164
148
133
121
112
105
99
95
92
90
88
89
93
101
112
126
142
161
181
200
184
189
200
214
230
229
230
234
230
225
223
223
217
202
187
175
167
163
164
171
183
200
220
222
217
216
217
210
207
209
213
219
225
232
239
242
235
224
210
196
184
175
171
171
176
185
197
210
199
192
192
198
208
207
194
182
170
159
149
139
130
121
112
103
97
97
106
119
135
152
169
188
205
215
224
237
237
218
201
185
167
150
134
120
108
99
92
87
84
82
82
83
88
95
105
119
134
151
169
187
173
179
191
206
221
218
219
223
231
232
230
231
223
208
193
181
173
169
171
178
190
206
219
211
205
205
209
211
210
212
217
224
231
237
238
233
225
213
199
186
176
169
166
168
174
185
198
193
182
176
176
183
194
207
201
189
177
165
153
142
131
121
111
102
96
96
100
109
124
142
160
179
196
213
226
233
238
223
203
186
171
154
137
121
107
96
88
83
80
79
79
81
86
93
103
115
129
144
160
175
166
173
186
201
209
206
206
211
219
231
236
237
231
214
199
187
179
175
177
184
195
211
209
201
195
195
200
206
213
220
225
231
233
234
231
225
216
205
191
178
169
164
163
166
173
184
192
178
168
162
164
172
183
197
212
200
187
175
162
149
137
125
115
105
99
97
99
103
113
128
147
167
187
203
218
228
235
232
211
190
175
161
144
126
111
98
89
83
81
80
81
84
89
96
105
116
128
141
154
167
164
171
184
200
195
192
192
197
206
219
236
243
239
221
206
194
185
182
183
189
199
213
202
193
188
189
194
201
209
217
223
227
230
229
226
220
210
198
184
172
164
160
160
164
171
182
180
167
157
153
155
164
176
191
207
215
202
188
174
160
147
134
121
109
103
100
100
105
110
118
133
153
174
193
209
222
232
240
223
203
189
174
154
135
119
105
95
88
86
86
88
92
97
103
111
120
130
141
152
163
165
173
186
189
181
177
178
183
193
207
225
244
247
229
213
200
191
187
187
192
201
209
198
190
185
186
192
199
208
216
222
227
229
228
224
217
207
194
180
169
162
158
158
162
169
179
171
159
151
147
151
160
174
189
205
220
219
205
191
176
161
147
132
115
110
106
104
106
112
118
126
140
159
181
201
216
228
238
238
221
205
187
167
147
130
116
105
98
97
97
100
103
109
115
122
129
137
145
154
162
169
178
187
175
167
162
163
169
180
195
214
235
255
237
221
207
197
192
191
194
200
208
198
189
185
186
192
201
209
217
224
228
230
226
223
216
205
193
179
168
161
157
157
160
167
175
165
155
148
146
150
161
174
190
206
222
237
225
210
194
178
163
148
130
117
112
110
110
113
120
127
135
149
168
190
210
225
237
249
236
221
201
182
162
145
130
119
112
111
112
115
119
124
130
136
142
148
153
159
165
175
184
175
162
153
149
150
156
168
184
204
225
247
245
228
214
203
196
193
194
198
206
200
192
188
189
196
204
213
221
226
219
214
210
208
208
206
193
179
169
161
157
157
159
164
171
163
154
149
148
154
165
178
194
210
226
240
247
231
214
197
181
167
152
134
120
117
116
117
122
130
140
147
160
182
206
221
229
241
242
234
217
198
179
162
147
136
130
128
130
133
137
142
147
152
156
160
164
168
171
182
180
165
152
142
138
138
145
157
174
195
217
239
246
235
220
208
199
194
192
194
199
205
198
194
195
202
210
219
215
208
202
197
194
194
195
198
195
181
170
163
158
157
158
161
166
164
157
154
154
160
171
185
199
206
216
229
243
242
234
218
201
186
174
158
141
129
127
126
128
133
143
153
163
180
205
217
223
233
244
234
224
214
197
180
166
155
148
147
148
152
154
151
152
156
163
172
176
178
180
189
175
159
145
135
130
130
137
149
166
187
210
232
241
241
225
211
201
194
190
190
192
197
203
201
202
209
211
205
199
192
187
183
181
181
183
187
192
184
173
165
160
157
157
158
161
166
163
160
161
167
176
178
182
188
198
209
224
237
229
222
217
205
192
178
162
147
141
136
135
138
145
157
169
181
204
210
215
223
235
232
222
214
207
197
183
172
166
165
159
150
144
141
140
143
149
158
168
180
189
192
175
158
144
133
127
127
132
144
161
181
204
226
236
236
230
215
203
194
188
186
186
188
192
196
200
200
197
191
185
179
174
171
170
171
175
179
185
186
175
167
161
157
156
156
158
160
163
166
167
166
165
166
169
174
183
194
207
223
225
218
213
208
203
194
179
165
154
146
143
145
151
161
175
191
204
204
207
215
225
231
221
213
205
199
192
185
177
166
155
146
139
135
134
136
141
148
157
168
178
193
176
159
143
131
124
123
128
139
154
174
195
217
234
234
235
223
209
199
191
186
184
184
185
188
190
189
185
179
173
167
163
161
160
162
166
172
178
184
180
171
165
161
158
157
158
159
160
162
162
160
158
157
159
163
170
180
192
207
220
213
207
202
197
196
194
180
168
160
155
156
160
169
182
196
196
196
200
206
216
228
219
211
204
197
190
183
175
165
154
145
137
132
130
130
134
139
147
156
165
196
178
160
143
131
123
120
124
133
147
165
186
206
224
235
236
235
220
208
198
191
186
183
182
182
183
181
176
169
163
157
153
151
152
154
159
166
173
180
185
178
171
166
163
161
161
161
162
162
161
158
154
152
152
155
160
168
179
192
207
206
201
196
191
190
191
194
184
175
170
169
173
180
191
191
188
189
192
199
208
219
217
209
202
195
189
183
175
166
156
146
138
132
129
127
129
132
138
145
152
199
181
162
145
131
122
119
121
128
141
157
176
194
211
229
239
242
234
221
209
200
192
187
183
181
179
176
170
162
155
149
145
144
145
148
154
161
169
177
182
186
179
174
171
169
167
167
166
166
164
160
155
151
149
149
152
159
168
180
194
200
195
191
187
185
186
188
191
190
185
184
186
189
186
183
182
183
187
193
202
212
215
207
201
195
189
183
177
169
160
151
143
136
131
128
127
129
132
137
142
204
185
165
148
133
123
118
119
125
136
150
167
184
199
215
231
245
250
236
223
212
202
194
188
183
179
175
167
159
151
144
140
139
140
145
151
160
168
176
182
187
188
183
180
178
176
175
174
173
170
165
159
153
149
147
148
152
160
170
183
196
191
188
184
183
183
185
186
187
187
186
184
182
179
178
178
180
184
190
198
208
214
207
200
195
190
185
180
174
166
158
150
143
137
133
130
129
130
133
137
209
190
170
152
137
126
120
119
124
132
145
159
174
188
202
216
231
245
252
239
226
215
205
196
189
183
177
168
158
149
142
138
137
139
144
152
161
170
179
185
190
194
193
190
189
187
186
185
183
179
174
166
159
152
148
147
150
156
165
177
191
190
187
185
184
184
184
185
184
183
182
180
178
176
175
176
180
185
191
198
207
214
207
201
196
192
189
185
181
175
168
161
154
147
142
137
134
133
134
136
216
196
176
158
142
131
124
122
124
131
142
154
167
179
191
203
216
229
242
242
237
229
217
207
197
190
182
172
161
151
143
139
138
141
146
155
165
175
184
191
196
199
201
201
200
200
199
198
195
191
185
176
167
159
153
150
151
155
163
174
188
191
190
188
188
187
187
186
185
183
181
179
177
175
176
179
183
189
195
201
209
215
209
203
199
196
194
192
190
186
181
175
168
161
155
149
144
141
140
141
223
203
183
164
149
137
129
126
127
133
141
152
163
172
182
192
202
214
226
239
234
229
227
220
209
199
190
178
166
156
148
143
142
145
152
161
172
184
193
200
205
208
209
209
208
206
205
204
204
205
198
188
177
167
160
156
155
158
166
176
190
195
196
195
195
194
193
192
189
187
184
181
179
179
180
184
190
196
202
208
214
217
211
206
203
200
199
199
200
198
195
190
184
178
171
165
159
155
152
152
231
211
191
172
156
144
136
132
132
136
143
152
161
168
175
183
191
200
211
223
233
228
226
225
221
211
200
187
174
163
154
150
149
153
160
171
182
194
204
211
216
218
219
218
216
214
212
210
210
212
211
200
189
178
169
164
162
165
171
182
195
202
204
205
205
204
202
200
197
194
190
187
186
186
188
194
201
207
213
218
223
220
214
210
207
205
205
207
210
211
210
207
202
197
190
184
177
172
169
167
239
219
199
180
164
152
143
139
138
141
147
154
161
167
172
177
182
189
198
208
220
229
226
226
229
223
211
197
184
172
163
159
159
163
171
182
195
207
218
225
229
231
230
229
226
223
220
218
217
219
223
214
201
189
180
173
171
174
180
190
203
210
214
216
217
216
214
211
208
204
200
197
195
196
199
207
215
221
226
230
230
223
217
213
210
210
211
215
220
220
217
217
220
217
211
205
199
193
189
187
246
226
206
187
172
160
151
147
146
148
153
159
164
168
171
174
177
181
188
196
207
220
229
230
232
236
223
208
194
182
173
169
170
174
183
195
209
222
233
239
237
238
240
241
238
234
230
227
226
227
231
226
213
200
190
184
182
184
190
200
213
219
224
228
230
229
227
224
220
216
212
209
208
209
214
222
231
237
241
239
232
226
220
216
213
213
216
221
225
218
215
214
216
221
228
227
221
216
212
210
252
232
212
194
179
167
159
154
153
155
159
164
169
172
173
173
174
177
181
188
197
209
222
236
239
245
234
219
204
192
184
180
181
187
197
209
223
237
248
244
243
244
247
251
250
246
242
239
237
238
242
236
223
210
200
194
192
194
201
211
219
226
234
239
239
234
232
232
234
230
226
224
223
225
230
239
248
253
247
241
233
227
221
216
214
215
218
225
224
218
214
213
215
219
226
233
241
238
235
233
255
235
216
198
184
172
164
160
160
162
165
170
174
176
176
175
175
175
178
184
192
202
215
228
242
255
242
227
213
201
194
191
193
199
209
223
238
249
249
242
238
238
239
242
247
245
241
240
241
246
255
243
230
217
208
202
200
203
207
213
222
232
241
240
233
229
228
229
232
236
241
239
239
241
246
255
246
241
239
239
232
225
219
215
213
213
217
225
226
220
216
215
217
221
227
234
241
248
254
254
250
241
222
205
191
180
172
168
167
169
173
167
163
165
171
178
177
177
178
183
189
199
210
223
236
243
234
224
213
203
197
194
196
201
210
221
233
243
233
226
222
221
223
226
230
234
238
236
238
242
239
232
223
214
206
201
199
201
206
214
225
236
242
233
228
225
225
226
230
234
240
245
250
253
248
239
230
226
225
226
229
221
214
210
208
209
213
221
230
225
221
220
222
225
231
237
237
239
240
240
240
247
234
217
204
193
185
181
179
178
168
160
156
157
163
173
180
179
180
183
189
197
207
219
231
233
225
216
206
198
193
192
194
200
209
220
232
223
213
206
203
202
203
206
210
214
219
223
225
225
222
217
210
203
198
196
197
201
208
218
229
241
233
226
222
220
220
223
226
231
236
242
240
237
231
222
214
212
213
216
222
216
208
203
201
202
206
215
228
230
227
227
228
232
233
231
229
229
229
228
227
243
239
233
220
209
201
195
184
173
164
157
153
154
160
169
179
181
182
184
189
196
205
216
226
224
218
211
203
197
194
193
196
202
210
220
215
202
192
186
182
181
182
184
188
193
198
202
206
207
206
202
198
195
193
194
197
204
212
223
235
231
223
218
216
215
216
219
223
227
230
228
225
221
215
207
201
200
203
209
216
209
201
195
193
194
199
208
221
235
233
233
234
238
232
228
225
224
222
220
213
230
235
228
220
211
201
191
181
171
163
158
155
156
161
169
178
184
184
186
191
197
205
213
220
218
214
208
203
198
196
197
199
205
212
206
193
181
172
166
162
160
161
163
167
172
177
183
187
190
191
190
189
189
191
195
201
209
218
229
226
219
214
212
211
211
213
216
220
223
220
217
213
208
203
196
191
192
196
204
213
202
193
187
184
185
191
201
215
228
238
238
240
241
234
229
225
222
219
216
201
215
229
226
217
208
199
189
181
173
167
163
161
163
167
173
180
187
187
189
193
199
205
212
214
213
211
207
204
202
201
201
204
208
197
185
173
162
154
148
143
142
142
144
148
153
158
165
171
175
178
179
182
186
191
198
206
215
224
218
213
209
206
207
208
210
212
215
218
218
213
209
204
199
194
187
184
187
193
202
206
193
184
178
176
178
184
194
208
222
235
242
245
245
238
232
227
223
219
215
190
202
214
226
217
208
199
190
183
177
173
171
170
172
176
181
186
190
191
193
196
201
206
209
210
210
210
209
207
206
206
203
195
186
176
166
155
146
139
133
128
126
125
127
131
136
142
149
156
163
168
172
179
186
194
204
213
210
206
203
201
200
201
204
207
210
213
215
218
216
210
205
199
194
188
183
182
186
194
204
197
184
175
169
168
171
178
189
203
216
229
241
247
251
243
237
231
226
222
217
181
192
202
212
219
210
201
194
188
184
182
181
182
185
188
191
194
194
195
197
200
204
205
206
207
209
210
208
204
198
191
184
176
167
159
150
142
134
128
122
117
114
113
114
117
122
129
137
145
154
161
168
178
188
200
199
195
192
190
190
191
194
198
204
208
212
215
218
220
218
211
204
198
192
187
183
184
189
197
203
188
175
166
161
161
165
173
185
199
212
224
236
245
254
249
241
233
226
221
219
176
185
193
200
208
215
207
200
196
194
193
194
196
199
202
201
199
198
199
202
204
203
203
204
205
208
205
199
191
184
175
167
160
152
145
138
132
126
121
115
110
106
104
105
107
112
119
128
138
148
157
168
180
192
186
181
178
176
176
179
184
190
198
206
212
217
220
222
224
223
215
208
201
195
190
187
189
195
204
193
178
166
158
154
155
161
170
182
196
209
221
231
240
248
248
239
230
223
217
215
175
181
187
192
198
205
213
209
206
204
205
208
211
215
210
205
203
203
205
207
206
204
203
203
205
208
200
191
181
172
163
154
147
141
135
131
127
122
118
112
106
102
99
99
101
106
113
123
134
145
157
169
184
178
171
166
163
162
165
171
179
189
200
210
217
222
226
228
230
231
223
214
207
200
196
195
197
204
201
184
169
158
151
149
151
158
168
181
195
207
218
228
236
243
250
240
230
221
215
212
177
181
184
187
191
196
203
212
216
216
218
222
226
224
216
211
209
210
212
214
210
207
205
204
206
208
197
186
174
163
153
145
139
134
130
127
125
122
118
113
107
102
98
97
99
104
111
121
133
146
159
174
173
165
158
153
151
152
158
166
177
190
203
215
223
229
233
235
236
237
232
223
215
209
205
205
208
210
192
175
160
150
145
144
148
157
168
181
195
206
216
225
233
239
245
243
232
223
216
212
181
184
185
186
187
191
196
203
213
224
231
235
240
232
224
219
218
218
220
221
215
210
207
206
208
209
197
183
170
159
148
140
135
131
129
128
127
126
122
116
110
104
100
99
100
104
112
122
134
148
163
172
164
155
148
144
143
146
153
164
178
193
208
221
228
230
235
241
242
242
242
233
225
219
216
216
220
202
184
167
154
145
140
141
147
156
169
183
195
206
210
217
226
237
242
247
237
227
219
215
188
189
188
187
186
187
190
195
203
214
226
240
251
244
235
231
229
229
230
228
220
214
210
208
210
212
199
184
170
158
148
140
135
132
131
131
131
131
127
122
115
109
104
102
103
107
114
125
138
153
168
166
158
150
143
140
140
144
153
165
181
197
213
222
220
221
226
232
240
246
247
243
236
230
227
227
216
197
178
162
149
141
138
140
147
157
170
184
195
195
199
206
215
227
239
246
246
235
227
223
186
195
193
189
187
185
185
188
194
202
213
226
239
248
247
245
243
242
242
233
226
219
214
211
212
216
203
188
174
161
151
144
139
136
136
136
136
127
124
125
121
114
110
107
108
112
119
129
142
157
170
165
158
150
144
141
142
147
157
169
185
201
217
217
215
216
220
226
233
241
249
250
245
240
236
230
213
194
176
160
148
140
138
140
147
158
171
185
184
184
187
194
203
214
227
240
252
248
240
235
179
187
195
191
187
184
183
184
188
194
204
215
227
239
239
241
247
254
249
241
233
226
221
218
218
220
205
190
176
163
154
146
142
140
141
136
123
113
109
111
116
123
118
115
115
119
125
135
147
161
173
169
162
156
151
149
151
156
165
178
192
207
221
214
212
212
215
220
226
233
241
248
254
248
239
225
208
190
172
157
145
138
136
139
146
156
169
182
177
176
179
184
192
202
214
225
237
247
240
231
177
185
194
192
187
184
182
182
185
190
197
207
217
228
229
233
238
244
245
247
241
235
230
227
226
221
206
191
176
164
155
148
145
144
143
126
112
101
97
98
103
112
122
126
125
128
133
142
153
166
178
176
172
167
164
163
165
170
178
189
202
215
218
213
210
210
212
216
221
226
232
237
242
243
233
220
203
185
168
154
143
136
134
137
143
153
165
176
173
172
173
177
183
192
201
211
221
231
234
224
180
186
194
193
189
185
183
182
184
188
194
201
210
218
220
224
230
232
234
237
241
244
240
237
236
222
206
191
176
164
155
149
146
146
138
120
104
93
87
88
93
101
111
123
136
139
143
150
159
170
184
187
185
182
181
181
183
188
194
203
213
223
217
213
210
210
212
214
217
220
224
227
230
232
228
214
198
181
165
151
141
134
132
135
140
149
159
169
172
170
170
172
177
183
190
198
207
215
222
218
186
191
196
194
190
187
185
185
186
189
193
199
205
208
210
215
219
221
224
228
233
240
249
248
237
223
207
191
176
164
154
148
146
146
137
117
100
88
81
81
85
92
103
115
129
144
155
160
167
176
188
199
200
200
201
202
204
208
212
218
225
223
218
214
213
212
213
214
216
217
218
219
220
220
220
210
194
178
163
150
140
134
132
133
138
145
153
161
167
169
168
169
172
176
181
187
194
201
207
213
195
198
198
196
193
191
190
189
190
191
194
197
198
198
202
208
209
210
213
218
225
234
245
253
239
224
207
191
176
163
153
147
144
145
139
118
100
86
79
78
80
87
96
109
124
140
157
171
176
183
193
203
212
219
222
224
226
229
231
228
226
222
219
217
217
217
217
217
217
216
215
214
212
211
211
209
194
178
164
152
142
136
133
133
136
141
147
153
158
165
168
168
168
171
174
178
184
190
196
202
201
201
200
199
197
196
195
195
195
192
190
188
188
190
195
199
199
200
203
208
216
227
239
245
242
226
209
192
176
162
151
144
141
142
144
122
104
89
81
78
79
84
93
105
121
138
157
176
186
191
199
207
213
217
221
223
224
225
225
224
224
223
223
222
222
223
223
222
221
219
216
212
209
206
205
206
196
181
168
156
146
139
135
134
135
138
142
146
149
155
164
167
167
167
169
173
177
183
189
195
203
203
203
203
203
202
197
191
187
183
181
180
181
184
190
191
190
190
193
199
208
219
234
239
239
229
212
194
177
162
150
142
138
138
141
130
111
96
87
82
81
84
92
104
119
138
158
179
197
200
206
212
215
217
218
218
219
219
220
222
224
225
227
228
230
231
229
227
227
224
219
214
209
205
203
205
201
187
174
163
153
145
140
137
136
137
138
140
142
147
155
167
166
166
167
170
174
180
186
193
207
207
208
209
210
202
194
187
181
177
174
174
176
180
187
184
181
181
184
190
199
212
227
235
235
233
216
197
178
162
148
139
133
132
135
139
120
105
95
89
86
88
94
104
119
138
159
182
204
211
214
218
219
218
216
215
215
216
218
221
225
229
233
235
236
229
223
220
220
223
226
220
214
209
206
208
208
195
183
171
161
153
147
142
139
138
137
137
136
140
149
160
166
166
168
170
175
181
188
196
214
214
215
217
214
204
194
185
179
174
171
172
174
179
185
178
174
173
175
181
191
204
220
234
234
236
221
201
181
162
147
136
129
126
128
133
131
116
105
98
93
93
97
106
120
139
161
184
208
221
224
226
224
221
211
204
202
203
208
217
227
233
239
243
235
225
217
213
212
214
220
228
222
216
214
216
218
205
193
181
171
162
154
148
144
140
137
135
134
137
144
155
166
167
170
173
179
185
194
203
224
224
226
228
218
207
196
186
179
174
172
173
176
182
182
174
168
166
167
173
183
197
213
231
237
239
226
205
184
164
147
133
125
121
121
126
133
127
116
107
101
99
101
109
122
140
162
186
211
233
234
234
224
210
198
191
188
190
196
207
220
236
245
247
234
222
213
207
205
206
211
220
231
227
224
227
228
216
204
192
181
172
163
156
149
144
140
137
135
137
143
153
165
170
173
179
185
194
203
214
237
238
240
234
222
210
199
190
183
179
177
178
182
188
180
170
164
161
161
167
177
190
207
225
243
245
232
210
187
166
147
132
121
116
116
119
127
136
125
116
108
105
106
112
124
141
163
187
212
236
245
237
219
203
190
182
179
181
188
199
214
231
247
249
234
221
211
203
200
200
204
212
223
236
238
240
237
225
213
202
191
181
172
164
157
151
146
142
139
141
146
155
166
172
178
185
194
204
216
228
