P2
# CREATOR: GIMP PNM Filter Version 1.1
50 50
255
243
218
189
168
160
165
177
168
165
175
198
226
246
243
218
194
181
183
199
201
204
220
238
239
240
247
222
191
169
166
179
193
167
144
139
159
199
246
228
204
197
205
223
242
247
226
206
197
204
227
207
186
163
147
142
149
164
162
160
173
197
222
229
244
237
215
205
208
211
200
206
226
250
234
221
230
229
216
197
191
200
206
175
153
148
166
203
235
228
205
195
198
210
225
230
207
186
176
183
206
181
169
154
144
143
150
162
156
156
168
192
220
232
246
240
227
221
213
199
190
198
220
246
232
211
212
233
229
224
214
219
215
187
166
161
178
203
207
207
207
201
200
207
216
223
199
173
160
165
187
170
167
161
155
155
161
162
152
153
164
187
215
241
251
238
228
214
200
188
182
189
209
234
239
214
206
221
242
241
233
234
225
200
183
181
186
185
184
178
179
187
200
209
214
218
201
169
152
155
176
173
179
179
176
173
172
164
156
156
167
187
213
238
240
228
222
208
195
185
181
186
199
224
239
229
213
219
237
250
243
243
237
217
203
190
179
175
171
162
155
157
169
192
215
217
208
175
154
154
173
184
183
178
177
180
182
178
170
169
178
196
220
240
231
220
214
207
196
191
189
187
193
208
231
244
231
229
240
253
246
244
249
228
205
189
180
177
172
158
145
140
147
168
201
215
209
186
163
162
179
188
180
181
188
197
198
202
197
195
202
218
241
245
230
218
208
198
195
196
199
193
190
197
215
239
250
244
249
250
241
243
249
227
206
194
188
188
181
169
151
140
142
158
189
205
198
196
175
174
189
186
184
192
205
214
205
209
223
228
234
243
243
221
205
198
197
192
179
174
182
200
196
197
207
224
242
245
246
241
239
246
246
224
207
199
199
190
167
162
165
153
153
168
184
183
181
189
186
183
195
184
187
200
217
234
223
221
228
235
239
237
221
200
182
174
175
185
175
161
163
180
201
208
210
217
227
232
233
235
243
251
236
219
209
207
206
182
165
162
165
166
166
165
161
161
164
176
197
195
198
189
196
209
226
244
243
233
233
235
233
226
213
194
172
158
156
166
180
162
156
162
177
199
218
219
220
220
224
231
244
238
230
218
216
222
207
186
176
177
176
170
160
151
144
148
157
173
197
214
206
203
211
205
205
216
233
226
222
225
228
229
221
204
177
154
145
151
171
176
161
154
159
176
201
226
220
216
218
228
241
232
227
226
232
232
213
201
199
202
194
184
168
151
142
148
162
180
201
224
220
226
211
194
188
194
212
226
221
227
237
244
244
227
196
164
144
144
161
186
175
159
153
164
190
223
231
220
218
226
242
235
230
240
251
234
222
220
227
217
202
195
186
165
154
161
178
195
212
229
238
247
221
198
186
188
204
226
227
236
250
247
243
251
222
183
157
152
166
192
194
172
160
168
194
229
249
231
223
227
236
246
245
244
231
223
224
232
249
233
215
203
198
188
177
178
173
174
187
212
241
234
227
212
196
195
208
231
236
247
242
225
217
228
244
211
182
173
184
209
216
193
181
189
204
221
235
219
210
211
222
236
239
227
213
203
203
214
235
238
232
213
199
189
180
164
153
150
160
182
211
208
200
209
202
195
202
223
244
245
222
202
191
198
229
236
214
199
202
219
240
224
202
183
180
190
205
210
198
195
203
218
234
229
215
206
203
212
220
213
215
218
200
183
168
152
138
133
138
155
179
188
178
184
200
192
192
207
227
231
208
188
175
178
200
232
222
213
214
223
238
229
196
173
163
165
172
189
188
183
188
203
223
241
235
226
216
209
198
191
192
198
204
187
170
154
140
132
133
143
161
179
162
163
178
192
186
195
212
224
207
188
175
172
186
214
223
209
203
205
215
222
194
170
155
150
150
162
177
170
175
191
216
239
242
219
202
190
182
178
177
182
188
198
192
177
162
153
148
151
162
178
155
148
157
181
186
188
205
223
222
204
190
184
188
205
220
207
200
199
206
213
192
173
159
151
145
152
162
156
161
179
205
211
221
212
193
184
179
177
176
179
184
193
204
213
205
191
182
179
183
181
152
138
140
157
184
194
207
226
244
232
218
207
204
209
215
208
205
206
211
205
192
181
172
165
157
155
145
137
143
163
187
189
199
216
202
194
192
189
187
187
190
197
208
222
234
238
227
217
214
179
152
132
128
139
161
184
202
218
233
236
219
211
211
209
208
209
213
212
202
194
190
188
188
174
160
142
125
117
121
140
169
180
193
217
232
220
200
187
181
179
181
186
193
201
214
232
248
243
231
175
169
147
137
138
150
164
175
185
197
212
207
199
197
198
201
209
215
206
196
191
190
195
198
177
158
139
121
112
114
129
154
168
184
211
247
223
191
174
163
158
158
162
168
173
184
200
219
237
227
167
178
175
161
153
153
157
158
159
166
180
199
195
193
195
200
208
218
213
203
196
195
200
210
196
172
150
131
120
121
131
144
152
170
201
229
229
192
171
156
147
147
150
156
158
165
178
197
220
233
172
175
175
177
174
169
160
151
143
145
160
186
206
203
203
205
211
219
227
218
207
202
205
215
221
196
170
150
137
134
130
127
136
145
177
211
228
206
172
153
147
144
148
146
150
152
161
180
207
237
192
187
177
170
168
176
173
154
138
136
152
183
220
223
219
216
215
220
233
235
221
209
209
221
231
223
194
171
156
135
120
116
126
136
158
190
220
228
193
162
153
147
143
128
135
142
148
167
198
236
225
213
193
177
170
173
182
161
141
137
155
191
236
241
231
228
223
223
235
247
219
196
189
203
233
240
212
186
165
137
120
122
133
142
157
180
211
241
215
179
156
148
139
122
128
131
136
156
190
232
248
246
225
202
189
188
193
168
146
144
164
203
248
230
218
222
231
233
245
240
208
185
181
197
230
246
213
187
168
150
136
127
121
140
160
178
207
245
223
188
158
140
131
126
120
114
120
141
177
222
208
227
243
230
213
210
203
174
155
156
179
221
237
218
209
214
227
240
245
219
192
176
180
202
222
221
211
184
162
145
130
110
102
121
153
182
205
239
227
190
155
128
112
102
96
93
101
123
156
198
180
202
226
227
231
227
213
183
167
170
195
220
210
212
209
218
232
239
224
197
175
168
180
202
186
186
206
191
167
145
125
106
95
108
139
175
209
231
230
193
160
127
102
87
80
80
90
110
139
173
167
193
201
201
219
240
227
196
180
183
206
201
191
200
215
227
232
226
207
181
163
163
178
180
159
163
186
211
188
161
135
112
99
101
116
150
190
220
237
206
174
139
107
88
82
85
95
112
134
159
170
186
171
173
193
230
244
210
191
191
206
193
184
196
212
226
230
221
200
173
159
159
174
162
147
154
181
214
223
193
162
130
110
107
115
131
163
205
233
239
204
164
130
107
104
109
119
132
145
160
181
163
144
146
170
210
247
224
201
193
200
199
191
203
219
215
203
201
199
174
159
157
166
159
150
162
190
216
243
232
200
170
137
121
122
136
154
193
223
242
229
198
163
142
138
146
150
158
170
175
184
151
130
130
154
195
235
234
207
191
188
195
201
206
195
183
176
177
186
180
163
156
158
164
164
169
173
185
208
230
219
204
179
151
139
144
165
196
209
225
227
210
194
176
162
144
137
141
157
181
187
151
127
123
143
180
222
236
222
198
186
183
186
183
171
160
156
160
172
184
171
162
159
160
161
157
154
161
179
208
207
196
194
183
164
164
181
194
194
207
222
206
193
179
160
141
130
129
138
155
193
155
126
118
132
162
197
230
245
222
201
187
180
172
156
144
141
149
164
179
186
177
172
170
168
159
150
148
159
181
196
187
184
188
189
186
184
180
183
195
213
203
192
181
167
150
136
129
129
137
204
164
133
120
127
150
177
203
231
247
228
206
189
175
154
140
138
149
167
185
195
196
194
192
187
175
159
149
152
169
191
187
185
185
183
180
176
176
184
196
212
205
195
190
183
171
157
145
137
137
218
177
146
130
131
147
166
183
201
226
232
226
210
189
164
148
146
160
183
202
212
214
211
208
208
200
177
162
159
173
196
200
199
197
191
185
182
186
198
210
219
210
204
202
205
201
190
177
165
159
234
193
162
144
143
153
165
173
182
197
220
228
231
210
183
165
166
182
208
230
234
235
230
223
222
225
201
181
177
189
212
221
224
219
212
204
201
210
226
235
228
216
211
216
222
216
220
219
207
199
245
205
175
159
157
165
174
174
175
182
199
226
248
232
203
187
190
210
239
248
242
246
249
241
241
247
221
201
198
209
225
240
234
231
234
233
232
244
249
243
229
218
214
222
222
214
217
230
244
246
246
219
191
176
174
167
159
172
178
181
193
214
237
225
205
194
197
215
235
219
212
215
222
230
234
228
213
200
199
211
234
234
224
223
230
242
247
236
220
219
223
209
205
213
230
223
227
234
233
234
229
235
216
198
177
160
153
164
181
184
193
210
223
213
200
194
200
214
198
178
171
172
180
190
198
197
192
193
202
221
229
216
213
216
224
224
216
205
195
202
211
194
188
199
226
236
239
230
224
219
201
226
212
194
178
168
166
174
186
190
197
208
212
209
205
204
200
181
158
143
134
134
142
153
166
174
183
197
213
214
205
204
209
214
218
209
199
187
184
199
196
176
173
186
212
238
248
237
227
218
182
201
215
200
190
187
190
196
196
198
203
204
207
206
195
179
163
147
133
121
111
108
114
128
146
163
185
193
185
183
189
201
212
219
222
209
196
186
188
201
176
159
160
177
204
228
248
245
228
218
178
187
197
211
211
213
220
210
206
210
207
203
207
193
172
153
140
130
124
115
104
97
102
116
139
165
176
161
156
164
183
207
223
231
234
223
207
200
206
188
158
147
153
174
201
222
238
246
226
213
186
186
187
196
214
235
244
226
223
225
214
207
211
190
164
143
133
129
129
122
109
101
103
118
143
169
156
143
142
158
187
217
225
234
243
242
227
222
210
172
146
139
151
177
199
208
227
245
236
220
187
193
186
184
194
214
239
244
248
242
226
215
217
197
168
149
139
138
125
118
120
112
113
126
152
170
156
145
148
166
196
218
213
220
233
248
248
234
201
166
142
138
152
178
179
185
202
227
249
237
181
194
186
182
186
199
219
226
236
242
241
233
227
199
170
152
146
132
101
92
102
122
133
141
162
182
176
172
176
190
214
215
209
213
221
230
238
224
192
159
138
134
146
168
172
172
183
200
219
225
192
196
190
187
189
196
202
209
215
221
233
251
231
199
169
150
146
128
92
79
85
105
134
162
175
196
209
214
218
224
225
217
215
215
216
216
215
213
186
157
137
132
140
154
165
168
171
180
192
205
202
201
200
195
190
185
185
194
194
200
217
240
235
202
169
146
140
136
99
81
81
98
129
168
194
206
215
220
222
222
224
225
227
226
223
215
207
205
191
165
145
136
136
141
148
164
166
169
178
191
210
212
208
189
177
172
177
184
177
182
201
230
235
209
170
142
129
135
118
96
89
99
128
171
212
221
221
212
209
216
229
238
232
218
217
225
215
210
207
182
161
147
140
136
136
152
167
170
179
195
231
234
214
193
178
175
183
176
164
166
186
219
243
219
175
139
120
120
132
116
103
107
131
174
225
239
214
189
183
196
225
249
227
208
202
211
231
233
228
203
182
164
150
141
138
149
169
179
195
217
