P2
# CREATOR: GIMP PNM Filter Version 1.1
100 100
255
139
131
133
142
154
155
154
148
156
161
167
175
172
182
178
170
159
151
150
154
157
164
174
180
186
176
171
166
160
158
160
158
155
153
158
167
160
154
153
159
162
170
175
177
177
179
180
181
183
186
181
171
168
169
166
169
162
152
147
144
143
147
149
155
170
175
176
175
169
162
166
174
180
187
188
185
178
174
168
160
157
151
155
161
164
167
171
168
157
153
158
153
152
154
165
174
179
183
191
193
133
130
128
131
139
144
151
148
148
147
150
155
161
164
165
161
152
139
133
135
134
138
149
160
158
159
159
156
153
150
146
143
143
145
145
150
147
143
141
142
146
155
164
170
170
167
169
172
171
176
170
161
164
166
172
172
165
159
155
155
155
156
155
154
158
167
171
173
168
164
162
170
182
187
184
186
182
176
169
167
160
156
157
156
160
166
171
174
167
161
159
158
150
153
160
167
172
178
183
186
135
129
126
132
147
145
147
149
146
135
135
135
143
153
151
146
136
128
121
122
121
120
128
138
144
149
148
142
140
140
138
133
131
136
134
139
135
131
128
129
134
142
146
162
164
158
162
163
168
170
167
160
158
162
165
169
162
162
164
166
165
165
163
166
165
162
169
170
168
160
157
156
166
179
179
173
168
158
158
154
157
159
159
162
160
161
168
174
176
167
166
165
160
161
165
163
169
176
183
187
132
127
127
131
140
142
144
149
143
136
128
126
131
144
146
133
128
126
119
120
118
119
125
132
137
139
141
139
138
135
137
141
142
138
140
141
140
135
128
123
125
132
141
152
157
154
156
154
160
167
163
161
160
154
152
148
145
145
149
154
162
167
172
173
174
173
173
170
162
160
153
149
150
160
158
157
150
142
140
136
138
146
153
157
160
153
154
160
168
171
168
170
164
168
168
167
166
168
173
182
137
133
131
130
138
133
137
143
146
142
134
129
123
131
140
136
129
124
121
122
124
129
137
145
145
142
141
133
137
138
141
150
156
154
151
149
146
143
139
132
131
133
139
153
156
155
153
149
152
161
160
157
158
153
146
137
132
128
126
129
132
142
151
165
167
168
173
170
165
161
156
150
144
142
138
135
131
130
129
125
129
132
140
150
154
155
143
131
139
143
151
151
150
156
157
150
155
161
169
175
149
142
138
137
136
134
135
140
143
144
140
140
136
133
142
141
136
133
124
126
131
137
152
165
160
150
141
140
136
137
139
148
159
167
166
159
152
146
144
140
136
134
147
157
155
159
158
156
150
152
152
151
155
156
142
130
126
121
121
117
114
115
128
140
150
155
161
167
174
172
165
158
148
142
136
128
123
118
118
121
119
120
123
132
138
149
142
129
124
123
129
133
135
146
146
146
144
147
160
172
153
148
145
146
140
134
132
132
141
147
147
152
154
149
146
143
140
138
132
125
129
139
154
168
171
162
159
159
152
146
145
146
154
162
169
168
155
146
141
138
138
144
149
150
149
151
155
160
157
153
152
153
158
155
144
137
131
127
128
123
117
113
116
120
131
139
146
151
160
163
164
163
149
149
146
138
133
127
123
123
124
120
124
124
127
126
142
138
133
125
123
126
134
145
150
150
147
150
156
165
159
157
154
148
143
136
131
127
135
151
155
164
168
164
155
145
148
152
145
138
132
131
140
148
159
164
163
165
167
158
149
149
153
159
163
162
157
151
143
139
139
143
151
149
143
141
147
158
162
161
161
169
171
167
154
147
139
135
137
134
135
133
128
121
126
125
126
134
138
144
148
150
146
144
142
140
138
133
131
133
134
131
126
127
127
124
128
134
139
134
132
130
137
146
154
153
156
156
157
164
155
157
155
156
150
145
136
131
133
152
156
164
168
165
158
150
149
158
158
155
148
144
140
139
137
151
161
163
172
173
162
158
161
159
150
147
152
151
146
142
143
143
146
151
147
136
137
152
163
169
169
177
180
173
162
154
145
138
137
136
136
141
144
145
138
127
123
122
123
126
132
128
128
131
130
130
128
128
124
124
122
124
123
122
123
123
129
132
132
134
132
131
137
148
152
154
148
148
151
159
152
154
153
154
155
146
143
140
146
159
162
168
167
167
164
147
145
157
173
168
165
162
159
143
129
137
155
164
171
177
177
178
178
170
153
142
143
154
152
150
152
152
149
150
151
147
142
148
166
169
171
173
174
173
165
155
146
139
131
126
130
135
142
148
154
141
132
123
115
113
115
115
123
124
123
122
118
113
114
114
109
109
115
116
121
123
122
122
124
126
129
127
128
135
137
139
136
138
139
141
158
151
143
148
155
155
146
148
154
156
161
168
170
168
169
156
147
149
165
173
170
179
187
171
148
137
147
159
169
173
180
184
191
184
169
154
151
158
159
158
159
164
165
159
157
164
163
162
169
174
169
167
166
166
161
149
148
142
129
123
122
124
133
138
146
150
148
133
125
124
116
115
120
121
123
120
113
108
104
104
103
103
104
113
118
127
119
112
113
116
119
123
125
127
126
122
125
128
131
134
160
150
138
140
152
159
158
155
156
158
156
162
170
170
169
164
156
151
154
161
169
179
193
195
179
159
156
166
177
181
177
181
188
199
196
182
179
182
180
176
171
177
185
177
170
178
191
191
188
188
183
170
171
167
158
147
141
142
138
130
122
120
126
127
132
143
153
153
141
132
134
131
125
120
120
119
116
111
101
98
98
98
95
95
101
112
118
109
113
112
113
116
118
122
122
119
122
123
126
132
157
153
143
142
145
153
160
165
168
169
164
168
164
163
173
172
170
165
161
162
163
166
178
194
204
191
176
180
193
200
190
187
190
200
215
208
204
205
202
197
186
191
202
198
185
187
201
212
204
205
202
193
180
173
163
155
148
145
145
149
140
129
125
126
128
136
145
156
153
138
136
145
132
124
118
112
113
114
108
102
102
93
90
91
87
90
98
104
111
107
109
111
110
117
117
119
123
126
128
133
161
158
147
151
150
150
146
152
164
168
168
169
167
167
176
178
179
180
174
171
165
162
161
174
193
203
198
197
203
210
209
201
195
202
224
234
230
223
226
221
210
212
220
223
211
203
206
215
211
207
210
215
198
179
175
165
160
159
154
168
164
149
141
136
131
131
139
148
153
152
145
150
142
132
118
109
106
106
105
107
110
105
97
90
90
88
89
94
100
104
104
102
109
113
115
117
125
131
136
139
163
164
155
157
159
160
152
153
162
166
164
164
169
178
182
181
181
186
186
186
177
168
158
163
174
194
203
207
208
212
215
215
209
214
228
239
242
234
230
233
229
228
233
236
230
218
215
219
224
217
213
219
215
200
191
180
172
170
179
188
194
188
176
162
147
141
147
153
156
161
156
149
150
143
131
120
109
107
102
100
110
111
106
97
97
97
91
93
106
112
111
112
112
122
126
124
136
143
145
146
159
162
158
158
159
166
166
167
166
175
174
172
174
182
182
180
182
181
186
193
194
183
170
167
174
183
190
196
204
212
217
223
226
227
231
241
248
244
233
233
236
236
231
235
237
231
222
224
232
229
220
219
222
216
207
202
193
189
194
200
208
211
201
195
180
167
173
173
169
172
165
156
152
154
148
137
131
125
117
112
108
116
117
107
105
104
101
105
114
120
126
129
128
138
141
136
146
160
157
151
154
155
146
145
151
160
163
167
169
182
183
180
179
180
178
181
182
180
185
191
195
194
192
188
188
190
192
191
200
210
218
222
228
233
236
241
250
250
241
232
228
231
229
228
230
235
231
226
231
236
230
223
224
220
220
220
214
206
203
203
207
210
210
210
202
183
184
187
189
184
176
164
153
148
148
150
146
140
138
129
116
117
124
119
116
114
110
115
124
131
138
139
144
154
155
150
159
173
173
166
151
154
147
134
136
138
145
158
170
179
183
181
175
167
170
177
182
182
182
189
195
201
210
211
208
205
204
200
205
215
220
220
222
227
231
235
244
252
250
241
227
223
221
222
224
232
235
233
233
238
240
230
227
224
228
230
231
223
205
199
196
199
200
200
201
198
194
195
191
184
184
179
165
150
145
143
144
143
144
135
128
119
122
125
124
122
120
119
126
134
142
148
153
162
158
155
157
170
177
175
144
146
147
139
132
130
128
136
156
175
183
177
165
160
171
182
182
184
188
191
196
208
217
227
228
224
219
217
215
225
228
221
220
221
223
228
237
245
250
246
234
227
224
224
228
233
240
239
236
236
236
230
225
225
232
237
237
231
216
205
198
198
198
196
195
191
191
191
184
176
171
173
170
164
151
137
135
144
147
145
142
131
126
129
130
131
129
129
132
133
138
144
152
158
153
153
151
156
172
181
143
143
143
143
135
128
125
122
131
158
175
183
173
164
174
188
190
195
203
208
209
211
215
221
225
227
226
230
228
232
235
229
224
222
222
223
225
233
241
245
241
237
231
228
232
240
247
245
244
241
236
230
221
219
226
233
234
232
227
217
207
201
203
206
201
195
185
181
173
164
158
163
161
163
157
149
141
143
144
141
143
140
138
133
134
137
142
146
151
152
151
149
149
150
147
148
151
150
161
180
130
139
146
149
145
140
135
128
134
152
175
188
189
183
182
190
197
204
214
224
225
221
218
219
223
223
224
230
237
240
240
237
234
232
227
224
222
228
235
240
241
242
235
228
229
236
244
246
245
243
236
228
223
218
218
223
228
230
225
218
211
207
201
210
216
208
191
181
175
163
157
157
154
157
161
160
158
160
153
146
144
142
138
142
137
134
138
150
160
162
161
155
149
145
141
143
151
151
157
177
121
127
136
145
150
147
149
140
142
159
181
201
211
209
203
205
208
213
218
221
221
221
221
223
226
227
222
222
226
237
244
244
242
240
233
227
227
233
240
242
243
244
242
234
229
230
236
241
243
242
234
229
225
220
216
219
219
223
223
215
210
207
203
207
215
216
203
185
176
173
164
160
155
155
160
166
174
179
173
162
147
137
131
132
140
136
131
140
149
155
157
154
150
147
141
140
149
157
164
178
121
121
129
136
141
147
151
151
154
162
178
196
212
218
215
212
215
223
226
225
218
217
217
219
225
231
229
219
215
221
234
238
241
241
235
231
232
236
241
244
244
246
246
244
238
233
233
235
240
244
237
233
231
225
223
221
219
223
225
221
213
211
208
207
209
210
210
202
187
181
182
178
166
160
158
166
175
183
182
170
154
144
132
125
131
136
130
129
139
143
144
144
146
141
145
146
155
161
162
170
125
122
125
130
133
136
139
148
162
174
186
195
198
210
214
214
221
225
224
220
216
213
211
212
220
231
232
221
212
214
222
226
229
231
229
226
230
234
237
238
236
242
245
247
246
242
236
233
236
242
242
241
236
230
229
228
229
231
229
227
222
217
213
209
208
206
210
209
204
195
191
192
186
174
167
168
175
179
180
171
159
150
137
125
131
138
134
130
135
137
134
129
137
144
144
150
161
171
168
172
126
125
124
129
135
142
142
140
156
180
192
201
196
195
202
207
219
224
223
218
214
207
204
210
223
229
228
224
216
217
217
219
223
226
226
223
225
230
235
235
232
233
238
244
246
246
242
235
232
234
238
239
241
236
231
230
234
238
230
229
232
228
220
216
214
210
205
201
202
199
193
194
193
188
179
172
173
168
167
166
161
154
143
133
129
135
141
139
138
139
135
127
125
129
138
150
163
181
181
182
124
126
125
123
133
139
143
138
150
169
185
197
196
191
190
196
205
217
221
221
214
208
205
210
222
227
228
227
225
229
225
223
228
229
228
225
228
230
232
234
232
226
225
232
240
246
246
239
232
228
228
233
238
237
231
229
232
240
234
227
226
232
230
224
219
217
206
196
188
184
189
194
192
187
182
175
164
161
161
156
162
162
155
143
138
140
146
149
146
145
140
134
121
119
123
134
151
171
179
180
112
116
122
119
123
132
141
140
150
161
171
187
191
186
183
185
194
203
214
222
220
213
208
214
227
232
233
235
231
234
235
232
234
230
225
226
230
232
233
233
232
228
218
219
232
240
244
242
237
231
227
230
236
238
235
230
228
235
240
232
225
226
230
229
222
217
209
200
186
175
178
185
189
187
179
168
157
156
154
150
154
157
159
152
141
136
138
150
148
139
139
136
128
121
121
132
143
160
173
182
106
101
107
115
120
130
141
147
150
157
168
187
197
195
190
189
195
201
214
225
228
224
217
219
231
237
239
240
239
240
237
235
233
225
214
216
221
227
231
229
228
227
216
207
216
227
234
238
239
236
229
230
236
239
239
236
232
233
236
237
233
227
229
230
228
222
214
206
192
179
178
177
184
185
188
180
164
155
153
152
148
152
154
155
149
137
133
145
150
143
139
142
140
136
134
140
149
163
176
183
109
100
98
105
113
116
131
150
159
163
166
189
202
206
202
204
212
215
223
236
239
238
233
231
236
240
242
243
244
243
236
228
221
210
197
194
199
208
215
219
220
220
215
205
201
210
221
233
242
238
231
230
235
241
242
243
240
236
233
231
231
230
231
231
226
222
219
211
197
187
185
186
185
189
193
189
181
171
168
159
150
150
154
152
151
145
137
140
149
144
143
145
138
137
139
149
164
181
193
194
117
111
107
107
111
113
119
139
159
168
172
185
194
201
206
212
227
233
233
241
246
246
245
245
246
245
245
245
243
244
240
228
216
207
191
184
187
189
195
200
204
207
208
205
203
203
210
221
238
244
234
227
227
235
243
246
246
244
239
228
223
224
230
232
228
222
220
218
211
199
197
195
191
196
198
196
192
187
180
172
161
156
156
154
155
154
148
147
148
143
139
134
134
136
136
146
165
183
192
196
120
122
121
120
120
120
121
138
154
170
179
181
185
189
202
217
226
233
237
240
241
244
246
248
248
248
245
241
236
239
238
230
219
211
199
191
187
190
192
193
194
197
199
202
206
210
210
215
230
244
243
231
222
226
237
245
246
245
245
235
222
220
225
228
232
232
228
227
219
212
206
202
194
194
199
195
191
188
188
186
176
162
152
156
161
165
158
156
148
139
131
126
126
124
128
134
144
165
178
190
116
117
126
129
129
130
130
142
155
166
176
181
182
186
199
216
225
223
225
228
229
229
234
241
245
246
245
240
231
227
230
231
227
223
214
204
199
196
199
200
202
200
200
204
211
216
212
211
219
232
243
239
227
219
228
237
241
240
242
239
230
220
221
223
226
231
233
234
225
217
210
205
195
193
195
192
188
191
190
189
184
169
157
152
160
160
160
156
150
143
134
125
128
127
121
120
129
139
156
170
109
105
116
129
136
139
141
154
162
167
176
186
185
191
198
210
219
216
216
218
220
217
219
223
230
236
240
239
230
219
217
219
222
221
221
221
216
209
207
210
217
217
215
215
217
222
220
216
214
222
236
240
234
224
224
227
233
235
240
241
235
228
224
222
224
226
225
225
222
216
204
202
196
193
195
192
187
190
188
180
179
175
161
151
156
158
159
151
142
135
132
126
135
138
132
122
123
128
143
157
104
101
108
120
136
149
155
161
170
178
187
198
199
202
205
212
211
211
210
211
212
210
207
209
212
214
219
228
230
223
216
212
209
209
215
220
218
210
208
214
229
232
230
228
230
232
233
228
223
229
236
240
236
232
230
227
229
229
233
236
237
233
229
225
222
218
209
205
206
206
202
199
196
193
190
190
187
189
191
181
173
165
159
152
154
152
153
156
145
130
123
126
132
137
140
136
134
132
141
149
107
101
107
114
126
143
158
164
170
179
195
205
208
208
210
215
215
211
208
205
209
204
201
200
201
202
202
207
216
222
220
206
199
198
200
208
215
208
201
204
219
230
231
229
228
231
235
234
230
235
241
242
240
235
233
233
229
222
224
231
234
231
229
232
230
221
207
197
194
194
197
198
198
193
189
187
186
186
194
190
175
163
151
149
152
146
151
159
161
139
125
114
116
130
138
143
143
143
144
146
121
113
119
124
128
135
149
163
168
177
195
206
206
203
204
209
208
210
210
207
207
202
199
197
194
195
197
200
204
215
221
211
199
190
189
193
203
200
194
193
200
211
217
219
217
221
228
234
237
238
238
236
235
232
228
231
228
222
222
224
225
222
221
223
229
227
221
209
201
197
201
206
203
195
186
182
176
176
183
187
187
177
164
147
144
143
143
151
155
146
128
110
106
119
135
143
151
154
156
155
137
133
136
139
143
145
144
153
167
175
184
198
199
197
195
196
196
198
203
203
203
202
199
196
197
197
199
202
203
214
225
220
204
197
194
197
200
200
201
198
194
193
198
202
204
207
216
228
234
234
229
225
216
215
210
210
213
217
218
222
223
215
211
208
210
218
223
221
216
209
212
212
206
200
190
184
176
172
176
181
182
180
174
154
144
140
139
139
143
141
128
112
104
110
122
138
150
158
165
168
143
145
149
149
153
157
153
156
166
177
187
191
196
197
194
191
191
194
196
197
196
193
199
196
196
196
199
205
210
217
226
225
220
206
202
204
206
210
214
213
207
198
190
191
194
198
205
217
225
222
219
210
199
190
188
192
195
199
207
216
218
213
203
194
193
197
208
214
219
219
215
210
207
205
199
188
177
169
169
169
170
168
174
167
150
139
136
133
130
124
121
109
103
109
115
127
137
146
159
166
147
148
148
148
152
157
165
164
168
172
179
189
193
197
193
190
189
194
196
194
186
185
190
196
196
194
199
207
215
221
222
227
229
220
210
207
210
214
223
220
220
213
202
196
196
194
197
207
214
210
205
195
181
177
178
177
179
181
188
203
210
211
209
198
189
191
198
200
208
210
205
205
203
203
200
196
185
170
163
159
160
159
155
156
151
142
138
138
129
121
119
116
112
114
117
128
129
135
143
155
153
148
146
144
145
148
155
161
171
176
174
180
193
194
189
185
190
194
193
191
186
183
184
187
192
195
201
206
216
219
220
218
221
224
221
213
206
207
212
219
221
217
209
202
198
196
193
194
209
210
206
202
189
180
178
179
176
175
177
184
195
198
203
204
199
190
191
192
193
197
192
188
191
198
199
199
192
183
174
163
159
158
150
146
145
146
140
143
135
123
114
109
118
121
126
131
134
132
137
151
161
159
150
138
137
142
145
155
161
173
174
179
184
184
178
179
187
193
192
189
185
186
183
178
188
191
197
204
211
216
218
210
212
217
225
221
212
202
201
207
220
219
212
204
202
195
189
188
199
209
206
205
200
190
190
190
187
187
182
181
178
181
187
196
201
195
189
189
191
197
195
184
180
185
196
198
195
190
182
176
165
159
159
159
147
145
146
142
142
127
115
109
110
121
125
134
141
143
140
144
156
157
152
144
141
140
145
148
156
165
175
180
179
169
166
168
178
186
191
187
185
183
182
176
180
184
185
194
203
209
207
195
195
202
213
219
222
212
199
199
203
210
208
203
198
194
194
191
197
204
201
201
198
193
192
194
193
194
196
192
186
179
182
191
199
200
194
196
199
206
205
200
184
180
190
202
201
189
184
177
175
165
164
162
153
142
137
137
136
130
115
107
106
110
117
124
137
143
145
140
142
145
150
150
144
137
142
148
156
164
170
175
175
162
156
161
169
174
183
186
184
182
182
172
169
168
169
174
186
199
203
191
178
179
192
206
219
219
212
200
191
191
204
209
202
196
195
196
202
203
196
194
193
187
186
186
187
194
198
196
193
188
183
182
193
202
203
205
208
210
212
203
187
181
185
193
199
191
178
173
170
168
169
165
159
149
135
133
127
120
112
109
106
106
112
117
120
128
139
145
132
133
132
137
142
136
138
143
159
166
175
181
185
175
164
165
164
167
171
175
178
177
179
173
167
160
157
159
172
187
194
196
183
172
178
193
208
221
220
212
196
186
197
213
218
207
202
200
207
201
191
183
178
177
173
168
170
176
186
194
198
195
189
185
189
196
206
210
213
214
210
199
187
188
193
191
189
191
185
176
168
160
159
162
163
159
150
138
123
114
108
108
108
112
111
114
120
119
122
131
123
122
126
125
135
140
142
140
151
162
173
179
187
186
175
172
168
168
167
171
168
168
170
169
165
161
157
154
161
171
189
201
199
184
181
193
207
219
225
221
210
194
193
211
222
216
208
204
205
201
193
184
173
171
164
164
159
159
169
186
195
199
197
192
194
197
205
212
216
218
217
207
194
191
195
196
191
190
191
183
172
157
147
151
158
155
154
147
130
119
105
106
108
113
117
124
127
126
121
125
123
116
124
124
128
138
139
138
142
159
175
186
194
192
180
179
179
174
168
171
172
167
161
156
157
157
159
159
158
162
179
201
209
204
196
200
210
217
224
228
225
217
205
211
223
220
209
202
201
196
190
186
188
179
175
170
169
165
164
169
182
193
191
189
192
192
197
208
216
223
223
221
209
198
194
197
199
199
197
187
182
168
145
144
152
150
146
144
132
118
105
102
105
110
118
131
139
138
129
128
121
126
128
127
131
137
135
129
134
150
174
191
196
196
191
186
188
184
177
169
173
173
166
157
150
152
153
157
161
162
173
191
205
208
202
203
211
212
217
225
225
223
219
217
223
218
206
197
193
188
181
179
181
177
178
177
177
174
171
163
168
181
183
181
180
185
184
195
209
223
223
222
221
214
202
195
198
204
206
195
185
173
161
147
144
145
143
134
123
113
106
99
103
108
121
130
137
137
130
120
117
127
134
133
137
147
148
142
135
143
161
181
188
185
188
185
183
183
188
180
173
172
173
165
159
153
152
154
160
166
180
193
205
208
207
209
207
208
212
217
215
215
218
225
226
219
209
196
189
187
184
181
174
168
164
169
173
176
178
170
164
172
178
179
174
172
176
181
190
210
221
225
226
225
216
203
197
195
200
195
182
175
171
160
150
148
142
128
114
107
105
94
93
106
116
121
132
141
138
126
122
121
123
133
144
152
160
157
148
148
154
168
175
173
170
170
173
172
182
185
177
169
169
169
168
166
163
157
156
163
184
197
205
210
212
212
211
206
215
216
210
207
211
216
222
219
216
206
197
188
184
186
179
170
161
161
166
174
182
180
176
178
181
179
176
171
176
179
181
200
220
228
230
229
230
222
207
193
192
185
178
172
171
166
157
154
143
130
116
113
101
95
94
99
108
115
123
132
140
134
125
124
131
131
137
150
158
163
164
163
172
176
176
171
161
153
152
160
169
177
171
166
167
166
166
173
170
162
157
159
173
189
196
203
207
211
212
211
217
219
215
209
201
207
213
215
219
217
210
196
188
184
181
182
172
160
159
170
179
183
180
185
186
184
181
178
186
192
199
213
225
228
227
231
235
236
225
205
191
184
173
167
167
164
160
153
144
132
114
106
97
91
91
97
109
116
115
125
131
136
143
135
136
133
133
136
148
154
161
167
174
176
172
173
170
153
144
154
158
157
153
149
151
158
165
178
178
171
165
160
163
172
181
183
187
197
205
207
210
210
211
212
203
197
200
202
208
213
213
198
190
183
176
184
179
168
157
161
170
174
175
178
181
184
184
188
200
210
215
223
229
227
218
220
226
233
230
217
209
194
177
169
164
161
161
160
152
137
116
106
97
90
90
100
113
116
114
110
116
123
147
137
128
128
128
135
139
146
147
157
172
175
168
170
173
169
160
167
168
159
151
143
139
140
148
167
180
181
170
163
154
152
161
165
171
181
192
199
206
206
210
211
207
195
191
191
194
199
205
194
177
169
166
169
175
173
166
160
161
164
164
167
171
173
176
189
200
212
219
222
228
226
217
207
209
217
222
220
218
207
188
173
167
161
161
160
154
145
127
109
99
95
95
101
113
125
121
113
111
116
126
132
131
126
125
134
144
146
147
149
160
169
172
173
174
173
170
174
173
168
159
146
133
128
131
145
156
165
165
159
151
142
148
157
157
166
176
187
201
207
208
211
212
206
198
197
198
197
198
191
173
159
152
155
157
166
171
169
166
159
155
163
172
176
183
185
196
209
215
218
229
228
221
213
204
207
214
214
214
213
201
182
169
167
168
167
158
154
140
124
110
105
107
108
117
123
128
120
116
121
114
112
124
130
126
132
136
137
134
143
154
163
173
179
179
173
163
162
166
164
164
151
136
124
125
132
134
139
143
149
146
142
144
148
151
157
164
176
190
203
206
203
209
211
206
201
198
193
196
193
187
172
161
156
155
162
176
179
177
164
156
165
179
185
195
199
198
206
215
221
228
226
222
218
212
215
216
211
204
204
200
184
169
163
161
162
160
148
142
132
121
116
116
114
118
124
127
123
118
117
100
99
102
111
120
126
130
127
127
133
152
165
173
178
183
179
171
161
153
152
153
149
139
130
121
118
119
115
120
131
136
138
142
148
154
162
170
176
179
195
201
200
202
206
205
196
191
185
184
186
191
190
179
171
164
165
174
178
179
174
168
175
181
184
199
204
203
204
210
216
225
223
221
220
222
223
221
210
196
194
194
182
175
163
159
158
150
142
134
124
116
111
117
115
119
123
122
122
120
123
95
93
90
95
108
120
128
122
124
138
153
168
180
179
183
185
184
175
163
146
143
146
146
142
135
125
121
119
122
129
135
136
140
147
157
170
174
181
184
188
195
199
201
206
206
197
193
187
180
180
185
192
197
188
179
172
172
174
175
183
183
190
191
191
196
205
205
208
210
216
222
225
223
222
221
222
219
208
196
193
194
186
178
165
161
163
155
142
122
108
108
106
106
113
116
117
114
115
125
137
103
98
89
89
97
113
124
128
123
127
138
157
173
177
177
189
195
194
183
170
153
150
146
153
154
147
144
144
141
143
144
150
154
156
163
173
178
181
185
191
196
202
204
204
210
207
206
198
191
180
179
189
200
202
197
186
181
183
187
192
195
198
204
202
202
207
209
216
219
221
226
229
226
223
219
211
206
202
200
195
192
195
186
172
161
160
156
143
129
118
113
110
107
111
118
120
116
113
123
139
116
111
100
94
101
118
128
129
129
130
130
142
166
173
173
182
194
200
193
184
164
151
143
145
154
160
164
166
159
158
160
160
162
163
165
170
179
184
186
190
197
204
206
205
206
211
212
211
203
189
177
177
185
196
204
196
191
196
196
203
209
211
214
216
212
209
211
221
227
227
226
229
225
222
213
200
196
197
202
197
193
196
195
185
172
158
153
144
132
123
121
125
122
118
120
122
122
121
122
133
129
126
117
112
118
133
145
146
142
142
141
140
152
166
169
174
177
188
186
184
167
154
136
136
145
155
166
168
169
166
161
158
165
169
170
170
175
182
188
190
192
197
201
204
208
210
208
211
208
196
179
176
181
184
190
193
194
194
198
204
211
215
219
225
224
217
215
216
217
217
222
227
223
218
206
193
188
194
196
199
195
195
200
197
185
167
152
145
131
130
126
131
127
122
117
122
123
119
130
135
128
118
114
117
119
137
148
159
153
153
154
153
154
161
170
167
160
166
169
169
165
158
138
133
136
147
157
163
162
165
163
166
172
179
182
184
185
188
193
194
190
191
195
196
200
203
206
211
207
199
188
179
172
175
184
191
195
196
198
201
202
204
208
217
217
217
217
215
209
205
210
218
219
214
205
193
187
188
195
196
190
184
190
197
192
182
163
144
134
129
123
122
121
114
115
118
122
125
132
137
121
109
101
102
114
122
139
150
149
154
161
169
170
172
179
185
173
165
160
160
155
154
148
145
141
144
152
157
158
154
159
163
173
181
188
187
190
197
202
204
202
198
190
187
186
189
199
206
203
201
197
189
174
169
178
193
198
205
206
204
201
199
197
201
203
206
209
212
207
203
204
212
216
217
213
199
190
188
190
190
184
179
174
178
183
185
165
141
123
116
113
116
120
117
117
119
118
123
129
131
105
106
98
100
102
110
128
147
145
143
150
164
172
172
178
184
179
176
167
160
152
153
155
153
149
151
152
153
156
154
153
155
162
176
182
184
182
190
198
208
210
207
200
188
182
184
190
201
204
204
202
198
187
173
185
195
201
206
213
216
210
204
202
199
200
201
203
205
208
206
207
209
211
216
217
207
192
182
183
180
173
170
163
160
162
171
166
143
121
109
107
111
120
129
131
127
119
120
124
131
98
95
97
97
96
93
106
124
130
130
138
149
162
161
165
173
175
178
179
172
159
156
151
150
149
149
154
159
163
161
156
151
149
158
171
175
176
180
197
209
215
213
205
198
187
184
189
199
207
212
208
206
200
189
190
196
200
205
206
215
213
209
206
203
199
200
201
203
208
213
211
213
218
217
216
212
195
172
167
165
167
166
158
151
153
160
160
150
129
116
112
112
126
135
147
140
129
121
121
126
95
92
94
94
97
87
89
104
112
120
124
141
151
150
152
156
165
174
179
179
169
159
155
149
146
148
156
165
170
167
160
152
150
155
162
174
182
179
189
206
214
216
209
205
196
188
188
196
207
215
214
207
204
199
197
196
195
198
201
205
209
213
211
204
197
195
194
198
202
212
216
217
215
212
204
199
192
173
165
157
164
171
162
156
154
163
167
157
140
130
122
124
134
148
154
154
151
141
133
135
106
98
94
97
98
93
90
91
99
105
118
139
152
156
156
152
149
167
178
181
173
162
150
145
147
151
156
163
175
175
166
160
159
166
168
175
186
187
186
195
209
217
216
209
202
199
193
194
207
208
208
204
201
194
196
194
195
191
191
196
201
200
204
200
195
197
196
193
199
206
213
215
208
199
188
184
179
171
161
155
162
170
170
163
157
165
166
164
152
150
140
136
140
152
161
161
158
153
151
158
111
106
102
105
104
103
102
96
94
98
108
122
142
159
170
164
155
157
168
175
178
174
161
153
152
155
156
155
164
170
172
167
167
175
179
183
190
191
190
189
194
203
212
213
208
203
198
198
199
202
203
198
196
193
192
189
187
186
187
184
189
194
195
194
195
200
210
208
196
195
199
206
205
195
186
176
167
160
156
155
155
170
170
167
164
162
161
157
150
150
151
150
152
154
157
160
156
156
161
174
111
102
101
104
108
110
114
113
105
105
111
121
135
157
166
171
159
153
152
157
172
185
177
167
161
159
158
156
158
161
170
170
166
172
182
193
196
197
193
191
185
192
205
216
216
208
205
197
191
188
194
189
184
182
187
186
181
178
178
179
183
187
192
192
193
202
215
215
209
197
193
193
191
189
182
176
166
158
156
156
159
171
171
169
160
160
154
144
135
141
143
149
154
153
148
151
152
152
159
177
107
97
89
90
93
107
115
116
116
116
117
119
129
146
157
162
167
153
144
148
165
180
187
182
172
163
157
160
163
166
172
174
172
177
186
201
207
202
197
196
192
187
198
219
219
215
210
207
198
189
182
180
179
178
179
182
179
177
177
180
184
190
192
192
190
193
204
215
214
203
189
184
180
175
176
172
164
152
149
153
163
168
169
166
155
150
146
136
127
130
131
138
150
149
148
151
150
151
157
173
94
93
87
77
82
94
106
112
117
131
131
122
125
135
141
151
165
160
148
146
164
176
187
190
182
169
164
161
166
166
179
188
189
192
200
207
213
212
206
203
201
199
199
209
215
213
207
207
202
191
182
180
185
186
185
186
188
183
180
182
186
194
200
199
185
181
186
200
209
205
190
180
175
174
174
172
158
145
146
152
161
162
159
156
147
142
135
126
124
122
127
136
143
151
150
149
148
149
151
159
103
91
82
73
72
78
91
108
114
126
136
135
133
140
137
147
158
160
156
149
154
173
184
195
194
178
169
170
171
173
179
195
204
204
209
209
210
214
220
216
216
219
219
213
210
205
203
203
202
197
188
187
188
191
192
193
194
193
194
190
193
199
207
209
196
183
181
185
194
199
191
180
175
172
171
173
163
149
145
146
155
160
154
147
144
139
131
119
119
120
121
132
142
145
154
149
145
142
145
156
112
110
95
79
74
74
83
97
114
123
132
139
146
147
144
153
155
155
156
153
150
159
171
184
195
194
184
176
179
184
187
197
205
206
205
206
206
212
221
224
223
223
228
228
220
213
206
207
207
209
204
198
192
194
195
192
191
197
200
196
194
197
204
211
206
198
191
193
190
192
194
190
177
171
168
173
165
157
152
152
153
160
160
152
150
149
138
128
123
123
124
122
135
144
148
150
144
137
136
147
120
112
112
89
75
77
78
87
100
114
122
127
138
143
143
146
150
154
161
160
146
149
157
165
175
185
186
183
183
189
196
203
203
204
200
201
205
211
216
223
224
223
226
230
229
224
217
212
213
210
208
204
200
192
189
186
183
192
200
202
199
191
191
204
211
207
203
205
199
198
200
194
190
178
167
171
164
160
159
162
159
159
157
152
153
158
149
136
128
130
126
120
119
127
143
149
150
144
136
140
119
105
96
106
87
74
82
83
89
98
102
115
129
132
129
128
135
148
164
165
155
145
147
156
165
170
176
184
189
196
202
207
209
205
200
199
201
209
215
221
221
223
225
231
233
232
227
223
215
207
204
207
207
201
194
187
179
182
192
200
199
193
183
187
202
207
207
206
207
204
201
198
192
174
161
161
164
160
157
158
156
161
168
162
159
164
158
150
139
139
130
118
111
115
126
139
149
150
142
135
103
100
85
86
95
81
70
91
90
95
98
108
115
118
120
120
124
131
155
168
166
152
151
154
163
171
172
177
190
197
200
207
214
208
204
201
205
214
219
226
223
221
222
227
232
233
234
232
228
216
207
206
212
215
211
199
189
185
191
198
204
201
187
185
185
191
197
203
204
198
194
191
185
174
160
156
163
163
160
154
153
156
161
161
166
168
170
162
153
150
135
125
118
114
125
135
141
143
144
144
95
97
100
87
80
87
74
72
93
99
100
109
110
110
113
119
121
118
128
148
165
174
169
166
168
172
174
183
197
198
197
202
213
216
211
210
212
217
225
232
232
229
223
224
226
226
227
231
232
225
211
209
216
220
220
217
208
198
197
201
207
207
198
191
185
187
191
194
191
189
182
178
178
173
166
164
165
168
170
165
164
164
162
157
152
160
165
160
156
150
144
128
123
123
132
141
144
142
143
146
110
95
92
101
83
73
91
81
70
97
104
111
117
116
114
115
120
120
123
139
161
179
185
180
175
175
183
195
201
205
206
207
214
217
216
212
211
212
219
227
233
235
234
230
225
220
221
222
228
230
220
210
212
216
219
222
221
217
206
203
206
205
199
190
184
185
193
193
185
175
168
169
172
168
165
161
159
160
171
173
176
176
171
155
142
136
141
142
140
141
139
138
132
132
139
143
144
145
145
152
102
109
90
92
98
82
76
93
78
65
98
113
119
125
120
117
118
128
135
141
147
163
179
187
186
183
186
199
204
205
212
219
223
222
217
214
212
210
211
216
222
229
233
234
233
227
221
217
220
223
224
216
211
205
201
205
210
211
209
201
195
200
202
195
183
178
186
196
187
175
169
161
159
155
150
153
153
150
155
164
170
176
170
150
143
129
120
118
118
122
127
139
140
137
141
145
144
151
153
164
105
89
99
81
83
94
87
73
87
84
72
103
121
124
121
116
118
128
146
148
142
151
166
180
185
180
181
188
195
202
210
218
223
226
225
222
218
213
209
209
213
218
226
232
234
231
224
216
216
215
215
217
216
204
196
193
195
200
202
195
189
189
198
196
188
181
180
193
192
186
183
174
162
155
147
145
149
143
138
141
149
162
161
144
138
135
123
115
112
113
117
135
146
143
143
142
146
156
159
166
111
84
81
86
66
64
89
81
65
91
90
80
106
123
120
119
121
131
142
151
150
151
159
173
179
178
172
173
179
187
198
211
221
222
223
223
223
220
215
211
209
212
222
232
232
228
223
219
215
206
210
215
215
205
200
196
192
192
192
190
188
179
183
185
184
182
177
184
195
195
196
188
175
160
150
146
144
141
138
135
133
146
155
148
141
139
140
129
121
118
124
140
148
148
145
141
140
153
162
165
104
104
85
76
70
58
64
84
85
76
96
95
78
106
128
125
127
140
154
161
162
157
158
166
174
178
174
169
170
176
184
194
206
213
216
215
212
215
218
214
208
206
213
227
233
228
220
217
215
205
204
210
217
216
205
199
194
189
186
182
181
184
183
182
174
170
168
171
183
188
193
191
179
164
152
145
140
139
141
142
138
139
142
139
139
140
150
144
134
126
134
141
145
147
147
141
139
137
145
154
108
102
97
85
65
69
64
65
83
90
75
90
96
77
109
128
135
136
144
156
160
160
157
164
171
176
177
172
171
177
180
182
188
189
198
206
206
211
211
210
208
205
208
220
227
228
224
218
217
213
206
204
209
214
212
208
202
196
185
177
180
183
185
177
171
167
165
158
161
165
177
182
176
160
144
141
137
131
135
139
142
137
128
127
129
137
148
146
139
133
132
137
142
142
143
140
138
135
134
134
131
114
96
87
79
65
70
70
61
88
92
73
92
100
87
105
130
135
134
138
150
151
145
145
154
169
176
173
175
179
179
179
176
171
175
187
193
205
209
208
209
210
214
222
221
221
225
223
222
222
222
215
210
213
213
216
212
207
199
187
182
186
184
180
176
171
170
164
153
147
152
164
168
159
140
130
124
125
129
130
130
130
127
117
119
133
150
152
145
129
123
127
139
137
130
131
135
135
133
133
142
133
103
82
86
87
72
70
74
64
86
88
74
90
96
77
94
121
132
133
141
143
135
131
139
152
163
164
169
173
175
177
181
175
167
172
185
198
210
215
215
212
213
218
221
220
220
217
219
222
227
228
217
212
210
212
216
216
215
200
191
191
189
185
183
178
177
170
161
147
144
150
156
157
146
132
119
122
127
128
124
123
118
109
113
125
140
146
140
127
110
110
118
117
120
119
120
123
130
135
134
129
109
90
81
84
81
58
75
81
67
87
92
71
77
83
70
91
119
132
140
137
126
123
130
137
144
149
152
159
166
177
186
182
172
172
182
196
210
222
225
217
212
212
217
221
217
212
215
215
217
220
221
209
206
206
209
214
217
218
207
197
190
185
185
182
182
183
172
161
152
153
154
151
142
133
120
115
119
123
121
120
117
106
104
117
131
132
130
123
111
103
101
100
104
114
114
115
121
133
125
108
103
93
84
69
69
70
59
70
73
71
93
87
64
62
75
67
81
120
139
138
129
131
136
139
137
137
141
152
162
174
185
186
179
172
173
189
209
222
230
222
208
204
210
222
226
216
212
216
208
200
203
201
198
198
205
210
214
216
211
205
195
187
180
173
176
179
177
164
153
153
156
155
144
134
129
123
118
117
116
120
117
110
105
107
115
121
120
115
114
110
98
91
92
105
110
112
115
126
130
108
87
92
86
74
58
58
65
55
59
73
73
89
79
59
57
67
64
76
115
139
135
137
141
143
139
133
135
143
161
177
190
188
186
181
175
186
197
207
217
212
195
190
192
208
218
217
218
217
214
194
189
185
188
191
203
209
213
209
209
206
198
185
178
171
168
171
170
162
148
140
146
146
146
141
133
130
128
123
122
120
114
111
109
103
105
109
111
108
107
108
102
91
92
103
112
113
111
115
146
124
90
93
85
78
72
55
50
54
49
60
69
64
71
73
60
56
64
70
77
108
126
133
135
139
144
143
139
142
154
173
188
193
190
190
188
192
197
191
195
204
193
181
180
187
202
211
215
219
220
207
191
178
176
187
207
216
216
216
208
202
189
178
171
166
166
165
161
156
154
145
143
141
139
135
132
131
129
126
125
117
112
108
107
108
106
110
111
100
99
105
106
98
96
105
116
116
118
119
149
137
116
94
99
95
88
79
58
49
53
54
54
61
61
66
72
58
55
67
74
77
101
113
120
123
135
142
143
138
136
149
168
182
187
187
190
195
198
187
192
198
186
179
174
175
184
190
200
207
210
206
196
183
169
173
194
208
216
211
207
203
187
171
165
161
161
160
153
148
147
144
145
142
133
132
128
126
125
119
118
118
102
92
92
101
106
112
114
104
100
100
103
109
107
111
116
122
125
131
146
127
124
110
103
106
103
94
72
58
47
54
52
47
63
64
62
57
60
56
70
71
72
93
92
102
114
127
132
130
131
131
148
162
176
175
176
178
186
191
194
194
184
180
176
170
167
172
179
188
192
191
191
185
171
163
169
185
202
202
191
187
177
166
160
159
155
155
152
144
143
138
136
134
130
125
121
118
113
108
106
107
98
88
81
90
101
110
115
106
97
103
102
105
107
112
119
126
138
146
154
128
111
116
108
111
105
95
92
69
64
53
57
58
59
59
64
57
61
69
66
75
76
78
91
94
99
114
112
123
131
128
132
141
156
159
161
161
164
169
173
174
172
178
180
173
156
155
163
180
183
177
176
179
170
159
154
160
174
180
175
172
164
156
148
146
143
150
157
147
145
139
132
124
119
120
115
116
104
95
89
92
89
80
78
78
88
97
102
104
101
103
103
101
97
101
111
124
135
142
130
129
111
104
100
109
112
90
84
80
72
63
57
62
66
52
51
68
66
76
72
75
87
80
81
97
97
98
113
122
129
139
139
134
140
147
147
143
140
149
149
150
156
164
169
166
151
140
140
153
172
177
176
175
174
166
158
149
157
161
161
162
155
150
145
131
131
144
146
146
142
137
130
122
112
112
109
107
100
94
84
83
80
73
72
72
78
84
86
91
91
95
99
95
93
97
104
119
137
148
129
116
109
99
92
87
94
91
81
81
72
65
59
57
68
65
54
61
81
72
79
68
86
100
80
91
105
92
103
126
137
136
152
148
140
134
136
132
128
125
126
135
139
141
146
149
138
129
124
128
140
154
164
169
171
168
157
151
147
146
153
159
153
152
145
128
123
127
130
127
133
129
125
114
105
103
106
105
102
102
97
92
85
79
72
70
76
83
83
82
89
95
97
94
92
96
104
118
137
151
143
127
106
97
90
83
84
88
80
71
69
61
58
57
55
62
71
62
69
66
72
81
79
92
100
90
95
105
98
100
138
145
148
160
151
143
137
140
140
123
121
123
129
128
130
133
127
122
115
116
122
134
142
147
153
155
149
140
138
139
143
152
152
156
150
138
130
121
114
109
111
114
107
99
94
92
90
93
98
102
102
100
93
85
78
74
81
79
81
84
85
88
92
94
98
101
110
125
139
156
132
139
117
99
87
83
87
91
88
74
64
63
59
62
60
53
58
63
58
64
67
76
80
66
90
92
91
88
102
100
97
139
148
140
149
148
143
145
148
141
138
137
140
133
130
132
129
121
116
114
116
123
124
129
133
138
139
132
132
133
132
140
142
146
142
138
134
123
112
97
97
101
100
91
88
89
80
85
87
93
93
95
91
84
82
78
82
83
82
83
85
88
87
90
93
99
115
127
142
153
149
130
131
116
96
91
99
105
103
91
82
73
70
70
71
62
51
56
50
63
74
72
72
68
63
86
92
88
86
106
98
86
136
137
126
136
140
138
146
153
152
155
153
153
151
151
151
149
136
127
124
123
125
126
124
128
131
123
127
131
134
134
130
132
132
131
130
128
117
103
97
101
100
97
95
95
89
87
86
84
87
88
88
83
83
78
81
81
80
82
83
92
89
90
91
98
109
121
130
146
160
157
128
121
114
109
104
108
113
114
101
95
86
84
82
74
67
59
60
56
64
70
57
70
69
69
77
85
80
73
100
94
82
129
120
109
131
130
136
143
151
152
151
148
150
159
159
161
163
153
150
145
143
140
136
135
136
127
127
133
139
138
132
124
119
124
128
127
125
115
105
105
105
109
107
107
101
101
97
93
85
91
89
85
81
82
81
83
84
82
78
84
89
90
92
100
108
117
123
132
133
150
149
123
123
129
118
100
108
117
115
108
115
104
97
93
91
84
73
70
66
61
65
67
77
79
74
72
84
77
61
106
103
76
113
107
98
115
121
128
131
132
134
132
133
142
150
155
161
166
166
157
151
152
148
142
148
148
152
153
148
144
139
133
126
122
127
134
135
130
119
115
116
119
123
122
122
120
114
111
103
93
92
91
90
86
82
83
87
85
80
82
89
91
96
102
108
120
129
132
134
132
138
149
126
128
136
117
100
108
122
115
116
123
120
109
102
101
96
88
79
75
75
76
75
66
89
88
70
94
82
68
115
103
74
108
105
97
114
114
118
120
117
118
113
111
119
132
144
149
154
155
145
141
138
138
143
148
154
159
159
157
142
136
133
132
135
136
143
137
131
128
123
125
127
130
131
134
132
122
114
108
98
99
102
100
98
91
93
94
91
88
87
86
96
107
117
125
129
134
141
144
134
137
147
132
137
137
118
100
107
111
111
110
122
121
111
111
112
116
114
100
84
75
83
79
71
111
99
72
107
100
88
129
110
97
132
118
109
117
121
123
125
121
111
103
101
104
113
125
135
140
138
133
124
128
139
148
149
151
157
157
144
140
139
138
140
140
140
143
135
130
130
129
125
126
126
134
139
132
123
115
110
107
106
114
112
104
102
107
108
110
96
93
95
102
120
129
137
142
153
148
156
140
138
138
130
140
143
129
109
108
107
111
115
123
125
117
124
128
125
125
110
93
75
102
100
84
122
110
88
129
120
101
136
133
115
137
129
133
137
145
147
142
131
121
109
100
102
113
125
137
141
133
125
119
124
131
141
145
146
146
142
138
135
138
146
145
140
147
141
132
127
128
130
123
118
119
130
136
134
122
118
114
110
114
123
118
113
111
119
120
110
104
104
102
117
135
157
161
