P2
# CREATOR: GIMP PNM Filter Version 1.1
80 53
255
57
63
45
65
55
48
68
49
58
63
45
65
55
48
68
49
58
63
45
65
55
48
68
49
58
63
45
65
55
48
68
49
58
63
45
65
55
48
68
49
58
63
45
65
55
48
68
49
58
63
45
65
55
48
68
49
58
63
45
65
55
48
68
49
58
63
45
65
55
48
68
49
58
63
45
65
55
48
68
50
105
90
115
128
107
110
71
127
118
65
129
109
132
101
83
115
123
68
129
114
110
110
76
129
108
78
119
132
110
115
68
129
109
81
119
112
114
111
81
121
115
73
131
119
116
110
72
123
117
73
119
117
116
117
73
124
114
79
125
116
117
100
79
123
117
70
121
122
119
116
70
128
112
79
120
123
102
117
69
130
57
166
75
98
155
80
151
99
114
117
105
152
121
114
89
144
89
124
140
71
157
56
118
140
69
169
48
113
159
58
166
110
90
123
121
131
127
131
78
140
103
115
134
85
160
49
123
146
58
172
63
106
152
73
159
93
110
124
99
148
133
102
91
152
82
123
150
55
163
65
105
146
77
151
58
123
147
64
177
90
41
113
186
70
67
139
180
56
94
173
103
64
127
146
103
87
162
92
97
121
130
129
90
155
80
141
102
110
115
139
135
69
150
134
80
110
172
131
62
132
175
62
92
158
171
49
120
195
70
77
151
209
35
105
184
112
54
132
191
86
86
166
130
75
116
154
126
89
144
97
127
108
116
125
118
135
81
151
107
98
33
89
145
200
70
52
108
163
197
53
72
127
182
129
50
91
145
185
114
52
109
164
125
112
68
127
175
108
104
89
146
126
130
96
109
163
93
150
88
128
129
109
157
90
149
81
128
150
106
130
92
147
141
132
71
110
168
134
130
74
129
188
131
61
92
147
195
124
55
110
166
193
48
74
129
185
183
35
93
150
26
71
115
160
205
75
40
87
130
175
195
55
54
102
148
177
164
55
69
118
152
189
125
53
82
119
160
195
123
56
87
130
174
133
129
50
99
137
195
101
122
63
106
152
140
113
118
77
117
171
75
127
117
87
132
145
88
142
110
103
142
80
107
156
104
114
143
77
123
161
98
121
115
93
132
169
92
141
74
105
22
59
97
133
170
213
83
31
72
109
146
186
188
63
39
85
122
163
170
180
61
48
98
139
157
170
131
67
61
109
132
155
177
93
75
74
106
137
151
159
112
82
82
104
134
163
120
132
82
70
118
130
178
111
146
65
86
111
144
182
116
133
74
92
114
159
128
104
142
81
90
127
178
72
113
152
79
100
139
139
19
51
83
115
146
178
219
93
25
61
93
125
156
196
179
75
28
72
104
135
174
172
163
65
33
79
117
153
166
156
132
78
41
90
132
164
154
143
107
92
54
103
138
131
143
152
107
106
68
113
100
141
129
171
105
120
81
89
113
124
144
140
121
131
72
83
123
114
154
114
133
130
56
98
111
125
166
117
146
105
16
44
71
99
126
154
181
220
93
21
53
80
108
135
162
199
175
77
21
62
89
116
144
180
187
139
64
26
66
98
128
161
182
148
120
80
37
70
111
143
179
135
131
132
92
48
83
118
159
141
144
116
111
101
69
91
130
145
129
125
125
94
118
84
103
131
100
136
108
142
105
128
104
113
76
110
115
122
155
104
15
41
65
91
116
141
166
191
227
92
20
48
74
99
124
149
173
207
186
69
23
56
82
107
132
156
191
221
127
63
33
61
90
115
141
173
207
157
102
75
49
64
95
123
156
189
154
136
97
68
65
69
103
139
172
176
140
108
103
78
79
83
115
149
186
117
143
88
115
86
102
91
127
159
137
132
117
96
104
103
13
37
60
83
106
128
151
175
197
228
93
19
44
66
90
113
135
158
181
209
200
66
25
50
73
96
119
142
165
195
233
126
63
40
54
80
103
126
149
178
212
172
104
67
54
58
85
110
132
165
192
215
147
78
67
70
62
90
116
148
175
205
142
128
76
75
84
70
95
128
157
186
169
138
101
85
72
94
84
109
12
31
49
68
87
106
124
143
161
181
203
77
16
36
54
72
92
111
129
148
167
189
191
50
24
41
60
78
98
116
135
153
175
208
114
41
34
44
64
84
103
121
140
163
189
173
97
42
45
48
69
90
108
127
151
174
205
113
76
53
54
54
74
93
113
137
160
186
158
127
53
55
59
65
77
98
125
145
171
192
12
31
50
69
88
107
126
145
163
183
202
221
80
16
36
55
73
93
112
131
150
169
188
208
215
51
25
42
61
79
99
118
137
155
174
194
219
143
37
32
46
65
85
104
123
142
161
181
204
212
117
27
40
52
71
91
110
129
147
166
190
213
147
104
30
45
60
77
96
115
134
154
176
198
211
119
83
39
52
68
10
28
45
62
79
96
114
130
147
164
181
199
216
77
14
32
49
67
84
101
118
135
153
170
187
204
210
48
20
38
55
72
89
107
124
141
157
174
192
207
171
40
24
42
59
77
94
111
128
145
163
180
195
214
118
30
29
48
65
82
99
117
134
151
168
182
199
211
105
22
34
51
71
87
104
121
138
156
171
188
9
24
39
54
69
85
100
115
130
145
160
176
191
209
89
10
29
44
59
74
90
105
119
134
149
165
180
197
197
62
11
33
48
63
78
94
109
124
139
154
169
187
189
190
52
14
36
52
67
82
98
113
128
143
159
176
183
188
135
50
17
37
56
71
87
102
117
132
148
164
172
180
192
90
46
18
39
60
75
92
9
24
40
54
70
85
100
116
130
146
161
176
192
206
227
105
8
29
44
59
74
89
105
120
135
150
165
181
196
215
202
81
4
33
48
63
78
94
109
124
139
154
169
185
204
198
192
62
4
34
52
67
82
98
113
128
143
158
175
193
197
186
151
68
6
33
56
71
87
102
117
132
147
165
182
197
187
176
114
72
8
22
36
50
64
79
93
107
121
135
149
163
177
191
205
228
105
8
26
40
54
68
83
97
111
125
139
153
167
181
195
216
193
80
4
30
44
58
72
87
101
115
129
142
157
171
185
206
205
162
53
5
30
48
62
77
91
105
119
132
147
161
177
196
205
173
140
65
11
30
51
66
80
95
109
123
137
151
169
186
7
19
30
41
52
63
74
86
98
109
120
131
142
153
164
177
196
96
6
21
32
43
54
65
77
89
100
111
122
133
144
156
167
186
169
75
4
24
35
46
58
69
80
92
103
114
125
137
148
159
179
194
128
61
8
22
38
49
60
72
83
94
105
117
128
139
150
169
187
150
111
67
20
20
38
52
63
74
86
97
7
19
30
41
53
64
75
87
99
110
121
132
144
155
166
178
190
207
97
7
21
32
44
55
66
78
90
101
112
123
135
146
157
169
181
196
185
71
9
24
36
47
58
70
81
93
104
116
127
138
149
160
172
190
214
126
66
20
22
38
49
61
72
84
95
107
118
129
140
151
163
181
201
165
108
65
33
21
38
53
7
19
30
41
53
64
75
87
99
110
121
132
144
155
166
178
190
201
216
95
8
21
32
44
55
66
77
90
101
112
123
135
146
157
169
181
192
206
203
66
14
23
36
47
58
69
80
93
104
115
127
138
149
160
172
184
198
223
131
59
25
22
37
49
60
72
84
95
106
118
129
140
151
163
175
190
209
188
113
53
7
19
30
41
53
64
75
87
99
110
121
132
144
155
166
178
190
201
212
224
93
9
21
32
44
55
66
77
90
101
112
123
135
146
157
169
181
192
203
216
221
63
16
23
35
47
58
69
80
93
104
115
126
138
149
160
172
184
195
206
228
153
50
24
23
37
49
60
71
84
95
106
117
129
140
151
163
175
186
200
7
19
30
41
53
64
75
87
99
110
121
132
144
155
166
178
190
201
212
223
235
100
8
21
32
43
55
66
77
90
101
112
123
135
146
157
169
181
192
203
214
226
236
67
15
24
35
47
58
69
80
93
104
115
126
138
149
160
171
184
195
206
217
233
199
54
19
26
37
49
60
71
83
95
106
117
128
140
151
163
6
16
25
35
44
54
63
73
82
91
101
111
121
130
140
149
159
168
178
187
197
206
89
6
18
27
37
46
55
65
75
85
94
104
113
123
132
143
152
162
171
181
190
200
206
57
8
21
30
39
49
58
68
77
87
96
106
116
126
135
145
154
163
173
182
192
198
200
46
10
22
32
41
51
60
71
80
90
99
109
4
12
20
27
35
42
50
57
65
72
80
88
95
103
110
118
125
133
140
148
155
163
174
89
2
14
21
29
36
44
51
59
66
74
81
90
97
105
112
120
127
134
142
149
157
166
165
69
0
16
23
30
38
45
53
60
68
75
83
91
99
106
114
121
129
136
144
151
160
159
162
51
0
15
25
32
39
47
54
62
4
12
20
27
35
42
50
57
65
72
80
88
96
103
111
118
126
133
141
148
156
163
172
184
100
2
14
21
29
36
44
51
59
66
74
82
90
97
105
112
120
127
135
142
150
157
165
177
166
82
0
16
23
30
38
45
53
60
68
75
83
92
99
106
114
121
129
136
144
151
159
170
171
151
58
0
13
25
32
40
4
12
20
27
35
42
50
57
65
72
80
88
96
103
111
118
126
133
141
148
156
163
172
179
193
107
2
14
21
29
36
44
51
59
66
74
82
90
97
105
112
120
127
135
142
150
157
165
173
185
172
87
0
15
23
30
38
45
53
60
68
75
83
91
99
106
114
121
129
136
144
151
159
167
180
190
141
69
3
12
4
12
20
27
35
42
50
57
65
72
80
88
96
103
111
118
126
133
141
148
156
163
172
179
187
199
109
3
14
21
29
36
44
51
59
66
74
82
90
97
105
112
120
127
135
142
150
157
165
173
181
192
182
85
3
14
23
30
38
45
53
60
68
75
83
91
99
106
114
121
129
136
144
151
159
167
175
187
205
134
4
12
20
27
35
42
50
57
65
72
80
88
96
103
111
118
126
133
141
148
156
163
172
179
187
194
205
106
4
14
21
29
36
44
51
59
66
74
82
90
97
105
112
120
127
135
142
150
157
165
173
181
188
198
196
79
8
14
23
30
38
45
53
60
68
75
83
91
99
106
114
121
129
136
144
151
159
167
175
182
4
12
20
27
35
42
50
57
65
72
80
88
96
103
111
118
126
133
141
148
156
163
172
179
187
194
202
210
103
5
14
21
29
36
44
51
59
66
74
82
90
97
105
112
120
127
135
142
150
157
165
173
181
188
196
205
210
75
12
14
23
30
38
45
53
60
68
75
83
91
99
106
114
121
129
136
144
151
159
167
4
12
20
27
35
42
50
57
65
72
80
88
96
103
111
118
126
133
141
148
156
163
172
179
187
194
202
209
216
105
4
14
21
29
36
44
51
59
66
74
81
90
97
105
112
120
127
135
142
150
157
165
173
181
188
196
203
211
222
75
13
14
22
30
37
45
52
60
67
75
83
91
98
106
113
121
128
136
143
151
4
12
20
27
35
42
50
57
65
72
80
88
96
103
111
118
126
133
141
148
156
163
172
179
187
194
202
209
217
224
115
3
14
21
29
36
44
51
59
66
74
81
90
97
105
112
120
127
135
142
150
157
165
173
181
188
196
203
211
218
231
84
8
15
22
30
37
45
52
60
67
75
83
91
98
106
113
121
128
136
4
12
20
27
35
42
50
57
65
72
80
88
96
103
111
118
126
133
141
148
156
163
172
179
187
194
202
209
217
224
233
131
1
14
21
29
36
44
51
59
66
74
81
90
97
105
112
120
127
135
142
150
157
164
173
181
188
196
203
211
218
226
232
104
0
15
22
30
37
45
52
60
67
75
82
91
98
106
113
121
4
12
20
27
35
42
50
57
65
72
80
88
96
103
111
118
126
133
141
148
156
163
172
179
187
194
202
209
217
224
232
242
147
0
13
21
28
36
43
51
58
66
73
81
89
97
104
112
119
127
134
142
149
157
164
173
180
188
195
203
210
218
225
235
230
124
0
15
22
30
37
45
52
60
67
75
82
91
98
106
3
10
16
22
29
35
41
47
54
60
66
73
80
86
92
98
104
111
117
123
129
136
143
149
155
162
168
174
180
186
193
199
210
122
2
11
17
24
30
36
42
49
55
61
67
75
81
87
93
99
106
112
118
124
131
137
144
150
157
163
169
175
181
188
194
204
191
92
0
12
19
25
31
37
44
50
56
62
69
76
3
7
10
14
17
21
25
28
32
36
39
43
47
50
54
58
61
65
69
72
76
80
84
88
92
95
99
103
106
110
114
117
121
128
81
0
6
10
14
17
21
25
28
32
36
39
43
47
50
54
58
61
65
69
72
76
80
84
88
92
95
99
103
106
110
113
117
124
121
66
0
7
11
15
18
22
26
29
33
37
3
7
10
14
18
22
25
29
33
37
40
44
48
52
55
59
63
67
70
74
78
82
86
90
94
98
101
105
109
113
116
120
124
128
133
80
1
7
10
14
18
22
25
29
33
37
40
44
48
52
55
59
63
67
70
74
78
82
86
90
94
98
101
105
109
113
116
120
124
129
128
63
4
7
11
15
19
23
26
30
3
7
10
14
18
22
25
29
33
37
40
44
48
52
55
59
63
67
70
74
78
82
86
90
94
98
101
105
109
113
116
120
124
128
131
136
77
2
7
10
14
18
22
25
29
33
37
40
44
48
52
55
59
63
67
70
74
78
82
86
90
94
98
101
105
109
113
116
120
124
128
132
136
59
8
6
11
15
19
23
3
7
10
14
18
22
25
29
33
37
40
44
48
52
55
59
63
67
70
74
78
82
86
90
94
98
101
105
109
113
116
120
124
128
131
135
139
76
2
7
10
14
18
22
25
29
33
37
40
44
48
52
55
59
63
67
70
74
78
82
86
90
94
98
101
105
109
113
116
120
124
128
131
136
144
57
9
6
11
15
3
7
10
14
18
22
25
29
33
37
40
44
48
52
55
59
63
67
70
74
78
82
86
90
94
98
101
105
109
113
116
120
124
128
131
135
139
142
81
1
7
10
14
18
22
25
29
33
37
40
44
48
52
55
59
63
67
70
74
78
82
86
90
94
98
101
105
109
113
116
120
124
128
131
135
139
149
61
8
7
3
7
10
14
18
22
25
29
33
37
40
44
48
52
55
59
63
67
70
74
78
82
86
90
94
98
101
105
109
113
116
120
124
128
131
135
139
143
146
90
0
7
10
14
18
22
25
29
33
37
40
44
48
52
55
59
63
67
70
74
78
81
86
90
94
98
101
105
109
113
116
120
124
128
131
135
139
143
150
69
3
7
10
14
18
22
25
29
33
37
40
44
48
52
55
59
63
67
70
74
78
82
86
90
94
98
101
105
109
113
116
120
124
128
131
135
139
143
146
151
100
0
7
10
14
18
22
25
29
33
37
40
44
48
52
55
59
63
67
70
74
78
82
86
90
94
98
101
105
109
113
116
120
124
128
131
135
139
143
147
3
7
10
14
18
22
25
29
33
37
40
44
48
52
55
59
63
67
70
74
78
82
86
90
94
98
101
105
109
113
116
120
124
128
131
135
139
143
146
150
156
109
0
7
10
14
18
22
25
29
33
37
40
44
48
52
55
59
63
67
70
74
78
82
86
90
94
98
101
105
109
113
116
120
124
128
131
135
139
143
3
7
10
14
18
22
25
29
33
37
40
44
48
52
55
59
63
67
70
74
78
82
86
90
94
98
101
105
109
113
116
120
124
128
131
135
139
143
146
150
154
160
113
0
7
10
14
18
21
25
29
33
36
40
44
48
51
55
59
63
66
70
74
78
82
86
90
94
97
101
105
109
112
116
120
124
127
131
135
139
3
7
10
14
18
22
25
29
33
37
40
44
48
52
55
59
63
67
70
74
78
82
86
90
94
98
101
105
109
113
116
120
124
128
131
135
139
143
146
150
154
158
163
112
0
7
10
14
18
21
25
29
33
36
40
44
48
51
55
59
63
66
70
74
78
82
86
90
94
97
101
105
109
112
116
120
124
127
131
135
3
7
10
14
18
22
25
29
33
37
40
44
48
52
55
59
63
67
70
74
78
82
86
90
94
98
101
105
109
113
116
120
124
128
131
135
139
143
146
150
154
158
161
166
107
1
7
10
14
18
21
25
29
33
36
40
44
48
51
55
59
63
66
70
74
78
81
86
90
94
97
101
105
109
112
116
120
124
127
131
3
7
10
14
18
22
25
29
33
37
40
44
48
52
55
59
63
67
70
74
78
82
86
90
94
98
101
105
109
113
116
120
124
128
131
135
139
143
146
150
154
158
161
165
169
106
1
7
10
14
18
21
25
29
33
36
40
44
48
51
55
59
63
66
70
74
78
81
86
90
94
97
101
105
109
112
116
120
124
128
3
7
10
14
18
22
25
29
33
37
40
44
48
52
55
59
63
67
70
74
78
82
86
90
94
98
101
105
109
113
116
120
124
128
131
135
139
143
146
150
154
158
161
165
169
173
109
1
6
10
14
18
21
25
29
33
36
40
44
48
51
55
59
63
66
70
74
78
81
86
90
94
97
101
105
109
112
116
120
124
3
7
10
14
18
22
25
29
33
37
40
44
48
52
55
59
63
67
70
74
78
82
86
90
94
98
101
105
109
113
116
120
124
128
131
135
139
143
146
150
154
158
161
165
169
174
177
117
0
6
10
14
18
21
25
29
33
36
40
44
48
51
55
59
63
66
70
74
78
81
86
90
94
97
101
105
109
112
116
120
3
7
10
14
18
22
25
29
33
37
40
44
48
52
55
59
63
67
70
74
78
82
86
90
94
98
101
105
109
113
116
120
124
128
131
135
139
143
146
150
154
158
161
165
169
174
177
181
130
0
6
10
14
18
21
25
29
33
36
40
44
48
51
55
59
63
66
70
74
78
81
86
90
94
97
101
105
109
112
116
3
7
10
14
18
22
25
29
33
37
40
44
48
52
55
59
63
67
70
74
78
82
86
90
94
98
101
105
109
113
116
120
124
128
131
135
139
143
146
150
154
158
161
165
169
174
177
181
186
141
0
6
10
14
18
21
25
29
33
36
40
44
48
51
55
59
63
66
70
74
78
81
86
90
94
97
101
105
109
112
3
7
10
14
18
22
25
29
33
37
40
44
48
52
55
59
63
67
70
74
78
82
86
90
94
98
101
105
109
113
116
120
124
128
131
135
139
143
146
150
154
158
161
165
169
174
177
181
185
190
148
0
6
10
14
18
21
25
29
33
36
40
44
48
51
55
59
63
66
70
74
78
81
86
90
94
97
101
105
109
3
7
10
14
18
22
25
29
33
37
40
44
48
52
55
59
63
67
70
74
78
82
86
90
94
98
101
105
109
113
116
120
124
128
131
135
139
143
146
150
154
158
161
165
169
174
177
181
185
189
194
149
0
6
10
14
18
21
25
29
33
36
40
44
48
51
55
59
63
66
70
74
78
81
86
90
94
97
101
105
3
7
10
14
18
22
25
29
33
37
40
44
48
52
55
59
63
67
70
74
78
82
86
90
94
98
101
105
109
113
116
120
124
128
131
135
139
143
146
150
154
158
161
165
169
174
177
181
185
189
192
197
144
5
6
10
14
17
21
25
29
32
36
40
44
47
51
55
59
62
66
70
74
77
81
86
90
93
97
101
